<?xml version="1.0" encoding="us-ascii" standalone="no"?><svg xmlns="http://www.w3.org/2000/svg" xmlns:xlink="http://www.w3.org/1999/xlink" contentStyleType="text/css" height="351px" preserveAspectRatio="none" style="width:1716px;height:351px;background:#FFFFFF;" version="1.1" viewBox="0 0 1716 351" width="1716px" zoomAndPan="magnify"><defs/><g><text fill="#888888" font-family="sans-serif" font-size="10" lengthAdjust="spacing" textLength="68" x="1634" y="9.2822">OpenWoo.app</text><text fill="#000000" font-family="sans-serif" font-size="14" font-weight="bold" lengthAdjust="spacing" textLength="173" x="764.5" y="35.6357">Integratie op bronnen</text><!--cluster Publicatie platformen --><g id="cluster_Publicatie platformen "><rect fill="none" height="109" rx="2.5" ry="2.5" style="stroke:#181818;stroke-width:1.0;" width="188" x="7" y="56.9375"/><path d="M189,56.9375 L189,66.2344 L179,76.2344 L7,76.2344 " fill="none" style="stroke:#181818;stroke-width:1.0;"/><text fill="#000000" font-family="sans-serif" font-size="14" font-weight="bold" lengthAdjust="spacing" textLength="167" x="10" y="70.9326">Publicatie platformen</text></g><!--cluster Services--><g id="cluster_Services"><rect fill="none" height="87.3" rx="2.5" ry="2.5" style="stroke:#181818;stroke-width:1.0;" width="196" x="820" y="67.7875"/><path d="M898,67.7875 L898,77.0844 L888,87.0844 L820,87.0844 " fill="none" style="stroke:#181818;stroke-width:1.0;"/><text fill="#000000" font-family="sans-serif" font-size="14" font-weight="bold" lengthAdjust="spacing" textLength="68" x="823" y="81.7826">Services</text></g><!--cluster Integratie--><g id="cluster_Integratie"><rect fill="none" height="96.3" rx="2.5" ry="2.5" style="stroke:#181818;stroke-width:1.0;" width="132" x="104" y="230.4375"/><path d="M190,230.4375 L190,239.7344 L180,249.7344 L104,249.7344 " fill="none" style="stroke:#181818;stroke-width:1.0;"/><text fill="#000000" font-family="sans-serif" font-size="14" font-weight="bold" lengthAdjust="spacing" textLength="76" x="107" y="244.4326">Integratie</text></g><!--cluster Bronnen--><g id="cluster_Bronnen"><rect fill="none" height="97.3" rx="2.5" ry="2.5" style="stroke:#181818;stroke-width:1.0;" width="861" x="714" y="229.9375"/><path d="M791,229.9375 L791,239.2344 L781,249.2344 L714,249.2344 " fill="none" style="stroke:#181818;stroke-width:1.0;"/><text fill="#000000" font-family="sans-serif" font-size="14" font-weight="bold" lengthAdjust="spacing" textLength="67" x="717" y="243.9326">Bronnen</text></g><!--entity Searchsite--><g id="elem_Searchsite"><ellipse cx="101" cy="120.9375" fill="#1ABC9C" rx="8" ry="8" style="stroke:#181818;stroke-width:0.5;"/><text fill="#000000" font-family="sans-serif" font-size="14" lengthAdjust="spacing" textLength="58" x="72" y="150.9326">Afnemer</text></g><!--entity OWS--><g id="elem_OWS"><polygon fill="#1ABC9C" points="836.5,102.7875,989.5,102.7875,999.5,120.9359,989.5,139.0844,836.5,139.0844,846.5,120.9359" style="stroke:#181818;stroke-width:0.5;"/><text fill="#000000" font-family="sans-serif" font-size="14" lengthAdjust="spacing" textLength="123" x="856.5" y="125.7826">OpenWoo Service</text></g><!--entity OI--><g id="elem_OI"><path d="M120.5,275.4375 C120.5,265.4375 170,265.4375 170,265.4375 C170,265.4375 219.5,265.4375 219.5,275.4375 L219.5,300.7344 C219.5,310.7344 170,310.7344 170,310.7344 C170,310.7344 120.5,310.7344 120.5,300.7344 L120.5,275.4375 " fill="#1ABC9C" style="stroke:#181818;stroke-width:0.5;"/><path d="M120.5,275.4375 C120.5,285.4375 170,285.4375 170,285.4375 C170,285.4375 219.5,285.4375 219.5,275.4375 " fill="none" style="stroke:#181818;stroke-width:0.5;"/><text fill="#000000" font-family="sans-serif" font-size="14" lengthAdjust="spacing" textLength="79" x="130.5" y="302.4326">Open Index</text></g><!--entity Zaaksysteem--><g id="elem_Zaaksysteem"><rect fill="#CCE5FF" height="46.2969" rx="2.5" ry="2.5" style="stroke:#181818;stroke-width:0.5;" width="133" x="729.5" y="264.9375"/><rect fill="#CCE5FF" height="10" style="stroke:#181818;stroke-width:0.5;" width="15" x="842.5" y="269.9375"/><rect fill="#CCE5FF" height="2" style="stroke:#181818;stroke-width:0.5;" width="4" x="840.5" y="271.9375"/><rect fill="#CCE5FF" height="2" style="stroke:#181818;stroke-width:0.5;" width="4" x="840.5" y="275.9375"/><text fill="#000000" font-family="sans-serif" font-size="14" lengthAdjust="spacing" textLength="93" x="744.5" y="297.9326">Zaaksysteem</text></g><!--entity CMS--><g id="elem_CMS"><rect fill="#CCE5FF" height="46.2969" rx="2.5" ry="2.5" style="stroke:#181818;stroke-width:0.5;" width="71" x="897.5" y="264.9375"/><rect fill="#CCE5FF" height="10" style="stroke:#181818;stroke-width:0.5;" width="15" x="948.5" y="269.9375"/><rect fill="#CCE5FF" height="2" style="stroke:#181818;stroke-width:0.5;" width="4" x="946.5" y="271.9375"/><rect fill="#CCE5FF" height="2" style="stroke:#181818;stroke-width:0.5;" width="4" x="946.5" y="275.9375"/><text fill="#000000" font-family="sans-serif" font-size="14" lengthAdjust="spacing" textLength="31" x="912.5" y="297.9326">CMS</text></g><!--entity Raadsinfo--><g id="elem_Raadsinfo"><rect fill="#CCE5FF" height="46.2969" rx="2.5" ry="2.5" style="stroke:#181818;stroke-width:0.5;" width="218" x="1004" y="264.9375"/><rect fill="#CCE5FF" height="10" style="stroke:#181818;stroke-width:0.5;" width="15" x="1202" y="269.9375"/><rect fill="#CCE5FF" height="2" style="stroke:#181818;stroke-width:0.5;" width="4" x="1200" y="271.9375"/><rect fill="#CCE5FF" height="2" style="stroke:#181818;stroke-width:0.5;" width="4" x="1200" y="275.9375"/><text fill="#000000" font-family="sans-serif" font-size="14" lengthAdjust="spacing" textLength="178" x="1019" y="297.9326">Raads informatie systeem</text></g><!--entity eDepot--><g id="elem_eDepot"><rect fill="#CCE5FF" height="46.2969" rx="2.5" ry="2.5" style="stroke:#181818;stroke-width:0.5;" width="92" x="1257" y="264.9375"/><rect fill="#CCE5FF" height="10" style="stroke:#181818;stroke-width:0.5;" width="15" x="1329" y="269.9375"/><rect fill="#CCE5FF" height="2" style="stroke:#181818;stroke-width:0.5;" width="4" x="1327" y="271.9375"/><rect fill="#CCE5FF" height="2" style="stroke:#181818;stroke-width:0.5;" width="4" x="1327" y="275.9375"/><text fill="#000000" font-family="sans-serif" font-size="14" lengthAdjust="spacing" textLength="52" x="1272" y="297.9326">eDepot</text></g><!--entity DMS--><g id="elem_DMS"><rect fill="#CCE5FF" height="46.2969" rx="2.5" ry="2.5" style="stroke:#181818;stroke-width:0.5;" width="72" x="1384" y="264.9375"/><rect fill="#CCE5FF" height="10" style="stroke:#181818;stroke-width:0.5;" width="15" x="1436" y="269.9375"/><rect fill="#CCE5FF" height="2" style="stroke:#181818;stroke-width:0.5;" width="4" x="1434" y="271.9375"/><rect fill="#CCE5FF" height="2" style="stroke:#181818;stroke-width:0.5;" width="4" x="1434" y="275.9375"/><text fill="#000000" font-family="sans-serif" font-size="14" lengthAdjust="spacing" textLength="32" x="1399" y="297.9326">DMS</text></g><!--entity VTH--><g id="elem_VTH"><rect fill="#CCE5FF" height="46.2969" rx="2.5" ry="2.5" style="stroke:#181818;stroke-width:0.5;" width="68" x="1491" y="264.9375"/><rect fill="#CCE5FF" height="10" style="stroke:#181818;stroke-width:0.5;" width="15" x="1539" y="269.9375"/><rect fill="#CCE5FF" height="2" style="stroke:#181818;stroke-width:0.5;" width="4" x="1537" y="271.9375"/><rect fill="#CCE5FF" height="2" style="stroke:#181818;stroke-width:0.5;" width="4" x="1537" y="275.9375"/><text fill="#000000" font-family="sans-serif" font-size="14" lengthAdjust="spacing" textLength="28" x="1506" y="297.9326">VTH</text></g><!--link Searchsite to OI--><g id="link_Searchsite_OI"><path d="M98.76,129.4575 C94.36,145.6375 86.01,184.6575 98,213.9375 C106.37,234.3875 118.926,248.34 134.386,261.26 " fill="none" id="Searchsite-to-OI" style="stroke:#181818;stroke-width:1.0;"/><polygon fill="#181818" points="138.99,265.1075,134.6491,256.2669,135.1534,261.9012,129.519,262.4055,138.99,265.1075" style="stroke:#181818;stroke-width:1.0;"/><text fill="#000000" font-family="sans-serif" font-size="13" lengthAdjust="spacing" textLength="95" x="99" y="202.5044">Bevraagd (API)</text></g><!--link OWS to OI--><g id="link_OWS_OI"><path d="M836.23,121.8175 C682.81,122.8175 358.41,131.0975 260,181.9375 C223.92,200.5775 199.2983,235.2637 184.6583,260.1937 " fill="none" id="OWS-to-OI" style="stroke:#181818;stroke-width:1.0;stroke-dasharray:7.0,7.0;"/><polygon fill="#181818" points="181.62,265.3675,189.6267,259.6323,184.1519,261.056,182.7282,255.5812,181.62,265.3675" style="stroke:#181818;stroke-width:1.0;"/><text fill="#000000" font-family="sans-serif" font-size="13" lengthAdjust="spacing" textLength="68" x="261" y="202.5044">Slaat op in</text></g><!--link OWS to CMS--><g id="link_OWS_CMS"><path d="M836.04,137.1775 C776.21,151.7375 711.17,176.9675 746,213.9375 C756.23,224.7975 866.73,215.1375 880,221.9375 C898.03,231.1875 908.9827,244.477 918.0827,259.377 " fill="none" id="OWS-to-CMS" style="stroke:#181818;stroke-width:1.0;"/><polygon fill="#181818" points="921.21,264.4975,919.9327,254.7318,918.6039,260.2304,913.1053,258.9016,921.21,264.4975" style="stroke:#181818;stroke-width:1.0;"/><text fill="#000000" font-family="sans-serif" font-size="13" lengthAdjust="spacing" textLength="127" x="747" y="195.0044">Scrapes periodically</text><text fill="#000000" font-family="sans-serif" font-size="13" lengthAdjust="spacing" textLength="98" x="761.5" y="210.1372">Uses as source</text></g><!--reverse link OWS to CMS--><g id="link_OWS_CMS"><path d="M916.5394,145.5072 C915.8394,157.4672 915.36,167.6575 915,181.9375 C914.64,196.1575 913.29,199.8175 915,213.9375 C917.09,231.2075 921.87,250.2775 925.98,264.6175 " fill="none" id="OWS-backto-CMS" style="stroke:#181818;stroke-width:1.0;"/><polygon fill="#181818" points="916.89,139.5175,912.371,148.2684,916.5979,144.509,920.3573,148.7358,916.89,139.5175" style="stroke:#181818;stroke-width:1.0;"/><text fill="#000000" font-family="sans-serif" font-size="13" lengthAdjust="spacing" textLength="190" x="916" y="202.5044">Notifies of changes or deletes</text></g><!--link OWS to Zaaksysteem--><g id="link_OWS_Zaaksysteem"><path d="M836.26,124.5575 C685.78,130.2275 377.26,146.1275 345,181.9375 C335.48,192.5075 335.78,203.1075 345,213.9375 C393.51,270.9575 609.6618,283.5125 723.0318,286.2525 " fill="none" id="OWS-to-Zaaksysteem" style="stroke:#181818;stroke-width:1.0;"/><polygon fill="#181818" points="729.03,286.3975,720.1293,282.1812,724.0315,286.2767,719.936,290.1789,729.03,286.3975" style="stroke:#181818;stroke-width:1.0;"/><text fill="#000000" font-family="sans-serif" font-size="13" lengthAdjust="spacing" textLength="127" x="346" y="195.0044">Scrapes periodically</text><text fill="#000000" font-family="sans-serif" font-size="13" lengthAdjust="spacing" textLength="98" x="360.5" y="210.1372">Uses as source</text></g><!--reverse link OWS to Zaaksysteem--><g id="link_OWS_Zaaksysteem"><path d="M830.1228,123.0617 C729.8628,126.1417 574.69,137.8475 537,181.9375 C479.61,249.0775 634.73,273.8975 729.2,282.6375 " fill="none" id="OWS-backto-Zaaksysteem" style="stroke:#181818;stroke-width:1.0;"/><polygon fill="#181818" points="836.12,122.8775,827.0014,119.1557,831.1224,123.031,827.2471,127.152,836.12,122.8775" style="stroke:#181818;stroke-width:1.0;"/><text fill="#000000" font-family="sans-serif" font-size="13" lengthAdjust="spacing" textLength="190" x="538" y="202.5044">Notifies of changes or deletes</text></g><!--link OWS to Raadsinfo--><g id="link_OWS_Raadsinfo"><path d="M999.66,125.8375 C1039.88,132.3575 1085.19,147.5675 1111,181.9375 C1128.76,205.5875 1126.1858,235.5681 1120.9058,258.6881 " fill="none" id="OWS-to-Raadsinfo" style="stroke:#181818;stroke-width:1.0;"/><polygon fill="#181818" points="1119.57,264.5375,1125.4734,256.654,1120.6832,259.663,1117.6742,254.8728,1119.57,264.5375" style="stroke:#181818;stroke-width:1.0;"/><text fill="#000000" font-family="sans-serif" font-size="13" lengthAdjust="spacing" textLength="127" x="1124" y="195.0044">Scrapes periodically</text><text fill="#000000" font-family="sans-serif" font-size="13" lengthAdjust="spacing" textLength="98" x="1138.5" y="210.1372">Uses as source</text></g><!--link OWS to eDepot--><g id="link_OWS_eDepot"><path d="M999.85,127.2675 C1088.01,134.5475 1220.92,150.4575 1260,181.9375 C1285.5,202.4775 1294.977,234.6871 1299.217,258.9471 " fill="none" id="OWS-to-eDepot" style="stroke:#181818;stroke-width:1.0;"/><polygon fill="#181818" points="1300.25,264.8575,1302.6408,255.3032,1299.3892,259.9322,1294.7603,256.6805,1300.25,264.8575" style="stroke:#181818;stroke-width:1.0;"/><text fill="#000000" font-family="sans-serif" font-size="13" lengthAdjust="spacing" textLength="127" x="1286" y="195.0044">Scrapes periodically</text><text fill="#000000" font-family="sans-serif" font-size="13" lengthAdjust="spacing" textLength="98" x="1300.5" y="210.1372">Uses as source</text></g><!--link OWS to DMS--><g id="link_OWS_DMS"><path d="M999.97,125.8375 C1135.58,133.1275 1394.5,150.9775 1422,181.9375 C1441.88,204.3275 1437.2164,235.4473 1430.0364,259.0473 " fill="none" id="OWS-to-DMS" style="stroke:#181818;stroke-width:1.0;"/><polygon fill="#181818" points="1428.29,264.7875,1434.7364,257.3414,1429.7453,260.004,1427.0828,255.0129,1428.29,264.7875" style="stroke:#181818;stroke-width:1.0;"/><text fill="#000000" font-family="sans-serif" font-size="13" lengthAdjust="spacing" textLength="127" x="1436" y="195.0044">Scrapes periodically</text><text fill="#000000" font-family="sans-serif" font-size="13" lengthAdjust="spacing" textLength="98" x="1450.5" y="210.1372">Uses as source</text></g><!--link OWS to VTH--><g id="link_OWS_VTH"><path d="M999.85,123.4175 C1166.8,127.2775 1534.13,140.4375 1572,181.9375 C1593.83,205.8675 1573.2548,237.1859 1552.2348,260.2159 " fill="none" id="OWS-to-VTH" style="stroke:#181818;stroke-width:1.0;"/><polygon fill="#181818" points="1548.19,264.6475,1557.2117,260.6966,1551.5607,260.9545,1551.3028,255.3035,1548.19,264.6475" style="stroke:#181818;stroke-width:1.0;"/><text fill="#000000" font-family="sans-serif" font-size="13" lengthAdjust="spacing" textLength="127" x="1581" y="195.0044">Scrapes periodically</text><text fill="#000000" font-family="sans-serif" font-size="13" lengthAdjust="spacing" textLength="98" x="1595.5" y="210.1372">Uses as source</text></g><text fill="#888888" font-family="sans-serif" font-size="10" lengthAdjust="spacing" textLength="68" x="817" y="341.5197">OpenWoo.app</text><!--SRC=[dLDDJnin4BtxLuoMG-6GI2tbG0wLW1mQgHJ45Y9LN2RUSM9rrxPiXnPL_UyTUtUJ3I88PI_-cFVUZD_CHXrhWfc9jFGODO5riF3M6392MHl9J-36aPbREqRdn8gmUdadFi3jUb5hcGLSZL5Ptv21us-8IpY3-zc9K1uRWk9rO05_1V2dkGwlK3BmGXbgo1U00Kf2BrT1HuAZZxYGvrByIrbByazQKcZpVDuawUzxMUSjdm8KNTKziO2aVZClTsK7RhJAfnlbRQZNhZ3Y0WEruiojw4-dEzkLlMnjxJG_RJIx-rvGsiPPFaSeVYB-2iyX4ZNPXy4Pu4XAEbFg9UVgkinONlTYxX2hm6Odz_CpXqboCCNsqcbApiOCRhTxaTEkcEaRnJpy-9enl6unsR0xuWdHreILTa4CXc1KsTzcz2KvF85BUl9iQ0N75xSyPwcRut6AJQ2i4MEQQ6r43lJ4P0w7fKT70HnvRIkUohf-VZJtWQ-udc3NNj8ERUZ_0VIjimUGEwSFO4uFUspgnpjftAllDcgLVspkbqZ-ZjOkjMYUahTHvbW5SeLccROUAgefKX13NzzF-my0]--></g></svg>