<?xml version="1.0" encoding="us-ascii" standalone="no"?><svg xmlns="http://www.w3.org/2000/svg" xmlns:xlink="http://www.w3.org/1999/xlink" contentStyleType="text/css" height="347px" preserveAspectRatio="none" style="width:941px;height:347px;background:#FFFFFF;" version="1.1" viewBox="0 0 941 347" width="941px" zoomAndPan="magnify"><defs/><g><text fill="#000000" font-family="sans-serif" font-size="14" font-weight="bold" lengthAdjust="spacing" textLength="240" x="343.77" y="22.9951">Commongateway Architecture</text><!--entity Website--><g id="elem_Website"><ellipse cx="330.54" cy="51.2969" fill="#F1F1F1" rx="8" ry="8" style="stroke:#181818;stroke-width:0.5;"/><text fill="#000000" font-family="sans-serif" font-size="14" lengthAdjust="spacing" textLength="137" x="262.04" y="81.292">Open WOO Website</text></g><!--entity Harvester--><g id="elem_Harvester"><ellipse cx="528.54" cy="51.2969" fill="#F1F1F1" rx="8" ry="8" style="stroke:#181818;stroke-width:0.5;"/><text fill="#000000" font-family="sans-serif" font-size="14" lengthAdjust="spacing" textLength="159" x="449.04" y="81.292">Sitemap XML / robot.txt</text></g><!--entity CMS--><g id="elem_CMS"><rect fill="#F1F1F1" height="46.2969" rx="2.5" ry="2.5" style="stroke:#181818;stroke-width:0.5;" width="205" x="11.04" y="295.5869"/><rect fill="#F1F1F1" height="10" style="stroke:#181818;stroke-width:0.5;" width="15" x="196.04" y="300.5869"/><rect fill="#F1F1F1" height="2" style="stroke:#181818;stroke-width:0.5;" width="4" x="194.04" y="302.5869"/><rect fill="#F1F1F1" height="2" style="stroke:#181818;stroke-width:0.5;" width="4" x="194.04" y="306.5869"/><text fill="#000000" font-family="sans-serif" font-size="14" lengthAdjust="spacing" textLength="165" x="26.04" y="328.582">Open Webconcept CMS</text></g><!--entity Gateway--><g id="elem_Gateway"><rect fill="#F1F1F1" height="46.2969" rx="2.5" ry="2.5" style="stroke:#181818;stroke-width:0.5;" width="166" x="346.54" y="157.2969"/><rect fill="#F1F1F1" height="10" style="stroke:#181818;stroke-width:0.5;" width="15" x="492.54" y="162.2969"/><rect fill="#F1F1F1" height="2" style="stroke:#181818;stroke-width:0.5;" width="4" x="490.54" y="164.2969"/><rect fill="#F1F1F1" height="2" style="stroke:#181818;stroke-width:0.5;" width="4" x="490.54" y="168.2969"/><text fill="#000000" font-family="sans-serif" font-size="14" lengthAdjust="spacing" textLength="126" x="361.54" y="190.292">Common Gateway</text></g><!--entity Zaaksysteem--><g id="elem_Zaaksysteem"><rect fill="#F1F1F1" height="46.2969" rx="2.5" ry="2.5" style="stroke:#181818;stroke-width:0.5;" width="133" x="447.04" y="295.5869"/><rect fill="#F1F1F1" height="10" style="stroke:#181818;stroke-width:0.5;" width="15" x="560.04" y="300.5869"/><rect fill="#F1F1F1" height="2" style="stroke:#181818;stroke-width:0.5;" width="4" x="558.04" y="302.5869"/><rect fill="#F1F1F1" height="2" style="stroke:#181818;stroke-width:0.5;" width="4" x="558.04" y="306.5869"/><text fill="#000000" font-family="sans-serif" font-size="14" lengthAdjust="spacing" textLength="93" x="462.04" y="328.582">Zaaksysteem</text></g><!--entity Raadsinfo--><g id="elem_Raadsinfo"><rect fill="#F1F1F1" height="46.2969" rx="2.5" ry="2.5" style="stroke:#181818;stroke-width:0.5;" width="210" x="725.54" y="295.5869"/><rect fill="#F1F1F1" height="10" style="stroke:#181818;stroke-width:0.5;" width="15" x="915.54" y="300.5869"/><rect fill="#F1F1F1" height="2" style="stroke:#181818;stroke-width:0.5;" width="4" x="913.54" y="302.5869"/><rect fill="#F1F1F1" height="2" style="stroke:#181818;stroke-width:0.5;" width="4" x="913.54" y="306.5869"/><text fill="#000000" font-family="sans-serif" font-size="14" lengthAdjust="spacing" textLength="170" x="740.54" y="328.582">Raadsinformatiesysteem</text></g><!--link Website to Gateway--><g id="link_Website_Gateway"><path d="M332.7,59.9469 C337,74.2669 347.71,105.6069 364.54,127.2969 C373.15,138.3769 379.8056,144.8869 390.6656,153.2469 " fill="none" id="Website-to-Gateway" style="stroke:#181818;stroke-width:1.0;"/><polygon fill="#181818" points="395.42,156.9069,390.7283,148.2473,391.458,153.8569,385.8484,154.5866,395.42,156.9069" style="stroke:#181818;stroke-width:1.0;"/><text fill="#000000" font-family="sans-serif" font-size="13" lengthAdjust="spacing" textLength="119" x="365.54" y="123.3638">Directly connected</text></g><!--link Harvester to Gateway--><g id="link_Harvester_Gateway"><path d="M525.72,59.8669 C520.2,74.0369 506.98,105.1569 489.54,127.2969 C481,138.1369 474.5749,144.6105 464.3149,153.1805 " fill="none" id="Harvester-to-Gateway" style="stroke:#181818;stroke-width:1.0;"/><polygon fill="#181818" points="459.71,157.0269,469.1816,154.3272,463.5474,153.8215,464.0531,148.1873,459.71,157.0269" style="stroke:#181818;stroke-width:1.0;"/><text fill="#000000" font-family="sans-serif" font-size="13" lengthAdjust="spacing" textLength="102" x="500.54" y="123.3638">Generated from</text></g><!--link Gateway to CMS--><g id="link_Gateway_CMS"><path d="M346.14,186.3969 C234.05,193.9269 46.35,209.9269 25.54,233.5869 C6,255.8169 28.902,275.9885 58.422,292.3485 " fill="none" id="Gateway-to-CMS" style="stroke:#181818;stroke-width:1.0;"/><polygon fill="#181818" points="63.67,295.2569,57.737,287.3956,59.2967,292.8332,53.8591,294.3929,63.67,295.2569" style="stroke:#181818;stroke-width:1.0;"/><text fill="#000000" font-family="sans-serif" font-size="13" lengthAdjust="spacing" textLength="127" x="26.54" y="246.6538">Scrapes periodically</text><text fill="#000000" font-family="sans-serif" font-size="13" lengthAdjust="spacing" textLength="98" x="41.04" y="261.7866">Uses as source</text></g><!--reverse link Gateway to CMS--><g id="link_Gateway_CMS"><path d="M340.3629,194.5752 C300.3129,202.4552 258.37,213.9069 218.54,233.5869 C186.71,249.3169 155.66,276.0369 135.69,295.1469 " fill="none" id="Gateway-backto-CMS" style="stroke:#181818;stroke-width:1.0;"/><polygon fill="#181818" points="346.25,193.4169,336.6471,191.2296,341.3441,194.3821,338.1915,199.0791,346.25,193.4169" style="stroke:#181818;stroke-width:1.0;"/><text fill="#000000" font-family="sans-serif" font-size="13" lengthAdjust="spacing" textLength="190" x="219.54" y="254.1538">Notifies of changes or deletes</text></g><!--link Gateway to Zaaksysteem--><g id="link_Gateway_Zaaksysteem"><path d="M422.61,204.0469 C418.51,221.9269 415.95,246.8969 426.54,265.5869 C433.57,277.9969 439.7675,284.604 451.9175,292.174 " fill="none" id="Gateway-to-Zaaksysteem" style="stroke:#181818;stroke-width:1.0;"/><polygon fill="#181818" points="457.01,295.3469,451.4865,287.1927,452.7663,292.7028,447.2561,293.9826,457.01,295.3469" style="stroke:#181818;stroke-width:1.0;"/><text fill="#000000" font-family="sans-serif" font-size="13" lengthAdjust="spacing" textLength="127" x="427.54" y="246.6538">Scrapes periodically</text><text fill="#000000" font-family="sans-serif" font-size="13" lengthAdjust="spacing" textLength="98" x="442.04" y="261.7866">Uses as source</text></g><!--reverse link Gateway to Zaaksysteem--><g id="link_Gateway_Zaaksysteem"><path d="M518.4593,200.5464 C536.7593,208.2564 548.44,217.1769 559.54,233.5869 C573.06,253.5869 556.51,277.9269 539.61,295.2769 " fill="none" id="Gateway-backto-Zaaksysteem" style="stroke:#181818;stroke-width:1.0;"/><polygon fill="#181818" points="512.93,198.2169,519.6709,205.3974,517.5378,200.1582,522.777,198.025,512.93,198.2169" style="stroke:#181818;stroke-width:1.0;"/><text fill="#000000" font-family="sans-serif" font-size="13" lengthAdjust="spacing" textLength="190" x="564.54" y="254.1538">Notifies of changes or deletes</text></g><!--link Gateway to Raadsinfo--><g id="link_Gateway_Raadsinfo"><path d="M512.99,187.5369 C597.71,194.9369 722.13,209.5169 763.54,233.5869 C788.4,248.0469 804.5967,270.3626 815.9467,289.9926 " fill="none" id="Gateway-to-Raadsinfo" style="stroke:#181818;stroke-width:1.0;"/><polygon fill="#181818" points="818.95,295.1869,817.9079,285.3933,816.4473,290.8583,810.9822,289.3977,818.95,295.1869" style="stroke:#181818;stroke-width:1.0;"/><text fill="#000000" font-family="sans-serif" font-size="13" lengthAdjust="spacing" textLength="127" x="798.54" y="246.6538">Scrapes periodically</text><text fill="#000000" font-family="sans-serif" font-size="13" lengthAdjust="spacing" textLength="98" x="813.04" y="261.7866">Uses as source</text></g><!--SRC=[dP5DJyCm38Rl-HNMBfm6Tmv8CAI1n9Yq2GqXBbxgRj7QE4eyHlyzRhUM83W0fzhnuu_thJYf22PSr-mtA7J01gwZtJeXA_j8nfp1Kw88zruebcWxEB0dByODRwDv80-h-HnMj4xQF09CVPnpIyrh3F0yUu0BYBncEPTtwV0xZ6-K56sNtg3TaIy-joLZ-x1VHslBtb8GcCoMtGZzvjXH5qoFmZhY5EVK2-8kDRgOwWx9yXnR81R9-P9ZZU8exnXAxUKBghJEFcrTIERa0OmBFlZnLRyVBk7MHVMuQa15U8seC8C3F-1JyXGrAw2CN9k-q8EgNA6bZHWeGQ3ek70MgwfvzVe3KtjcudsqzAqrq_lV4OC1lnsWFZsok5BBdLUclN-y3rya7mdjunBi5lsc3ICKL95GCldTVslz0000]--></g></svg>