<?xml version="1.0" encoding="us-ascii" standalone="no"?><svg xmlns="http://www.w3.org/2000/svg" xmlns:xlink="http://www.w3.org/1999/xlink" contentStyleType="text/css" height="498px" preserveAspectRatio="none" style="width:1175px;height:498px;background:#FFFFFF;" version="1.1" viewBox="0 0 1175 498" width="1175px" zoomAndPan="magnify"><defs/><g><text fill="#888888" font-family="sans-serif" font-size="10" lengthAdjust="spacing" textLength="68" x="1093.67" y="9.2822">OpenWoo.app</text><text fill="#000000" font-family="sans-serif" font-size="14" font-weight="bold" lengthAdjust="spacing" textLength="391" x="385.335" y="35.6357">Algemene Architectuur en keuze mogenlijkheden</text><!--cluster Publicatie platformen --><g id="cluster_Publicatie platformen "><rect fill="none" height="127.3" rx="2.5" ry="2.5" style="stroke:#181818;stroke-width:1.0;" width="540" x="94.67" y="56.9375"/><path d="M276.67,56.9375 L276.67,66.2344 L266.67,76.2344 L94.67,76.2344 " fill="none" style="stroke:#181818;stroke-width:1.0;"/><text fill="#000000" font-family="sans-serif" font-size="14" font-weight="bold" lengthAdjust="spacing" textLength="167" x="97.67" y="70.9326">Publicatie platformen</text></g><!--cluster Services--><g id="cluster_Services"><rect fill="none" height="87.29" rx="2.5" ry="2.5" style="stroke:#181818;stroke-width:1.0;" width="196" x="683.67" y="238.2375"/><path d="M761.67,238.2375 L761.67,247.5344 L751.67,257.5344 L683.67,257.5344 " fill="none" style="stroke:#181818;stroke-width:1.0;"/><text fill="#000000" font-family="sans-serif" font-size="14" font-weight="bold" lengthAdjust="spacing" textLength="68" x="686.67" y="252.2326">Services</text></g><!--cluster Integratie--><g id="cluster_Integratie"><rect fill="none" height="240.59" rx="2.5" ry="2.5" style="stroke:#181818;stroke-width:1.0;" width="228" x="204.67" y="233.2375"/><path d="M290.67,233.2375 L290.67,242.5344 L280.67,252.5344 L204.67,252.5344 " fill="none" style="stroke:#181818;stroke-width:1.0;"/><text fill="#000000" font-family="sans-serif" font-size="14" font-weight="bold" lengthAdjust="spacing" textLength="76" x="207.67" y="247.2326">Integratie</text></g><!--cluster Bronnen--><g id="cluster_Bronnen"><rect fill="none" height="96.3" rx="2.5" ry="2.5" style="stroke:#181818;stroke-width:1.0;" width="713" x="456.67" y="377.5275"/><path d="M533.67,377.5275 L533.67,386.8244 L523.67,396.8244 L456.67,396.8244 " fill="none" style="stroke:#181818;stroke-width:1.0;"/><text fill="#000000" font-family="sans-serif" font-size="14" font-weight="bold" lengthAdjust="spacing" textLength="67" x="459.67" y="391.5226">Bronnen</text></g><!--cluster Legenda--><g id="cluster_Legenda"><rect fill="none" height="97.3" rx="2.5" ry="2.5" style="stroke:#181818;stroke-width:1.0;" width="358" x="734.67" y="71.9375"/><path d="M812.67,71.9375 L812.67,81.2344 L802.67,91.2344 L734.67,91.2344 " fill="none" style="stroke:#181818;stroke-width:1.0;"/><text fill="#000000" font-family="sans-serif" font-size="14" font-weight="bold" lengthAdjust="spacing" textLength="68" x="737.67" y="85.9326">Legenda</text></g><!--entity KOOP--><g id="elem_KOOP"><ellipse cx="130.67" cy="100.4375" fill="#1ABC9C" rx="8" ry="8" style="stroke:#181818;stroke-width:0.5;"/><path d="M130.67,108.4375 L130.67,135.4375 M117.67,116.4375 L143.67,116.4375 M130.67,135.4375 L117.67,150.4375 M130.67,135.4375 L143.67,150.4375 " fill="none" style="stroke:#181818;stroke-width:0.5;"/><text fill="#000000" font-family="sans-serif" font-size="14" lengthAdjust="spacing" textLength="40" x="110.67" y="164.9326">KOOP</text></g><!--entity WOOGLE--><g id="elem_WOOGLE"><ellipse cx="216.67" cy="100.4375" fill="#1ABC9C" rx="8" ry="8" style="stroke:#181818;stroke-width:0.5;"/><path d="M216.67,108.4375 L216.67,135.4375 M203.67,116.4375 L229.67,116.4375 M216.67,135.4375 L203.67,150.4375 M216.67,135.4375 L229.67,150.4375 " fill="none" style="stroke:#181818;stroke-width:0.5;"/><text fill="#000000" font-family="sans-serif" font-size="14" lengthAdjust="spacing" textLength="62" x="185.67" y="164.9326">WOOGLE</text></g><!--entity Website--><g id="elem_Website"><ellipse cx="318.67" cy="130.0875" fill="#CCE5FF" rx="8" ry="8" style="stroke:#181818;stroke-width:0.5;"/><text fill="#000000" font-family="sans-serif" font-size="14" lengthAdjust="spacing" textLength="56" x="290.67" y="160.0826">Website</text></g><!--entity Themasite--><g id="elem_Themasite"><ellipse cx="435.67" cy="130.0875" fill="#CCE5FF" rx="8" ry="8" style="stroke:#181818;stroke-width:0.5;"/><text fill="#000000" font-family="sans-serif" font-size="14" lengthAdjust="spacing" textLength="77" x="397.17" y="160.0826">Thema site</text></g><!--entity Searchsite--><g id="elem_Searchsite"><ellipse cx="567.67" cy="130.0875" fill="#1ABC9C" rx="8" ry="8" style="stroke:#181818;stroke-width:0.5;"/><text fill="#000000" font-family="sans-serif" font-size="14" lengthAdjust="spacing" textLength="86" x="524.67" y="160.0826">Zoek pagina</text></g><!--entity OWS--><g id="elem_OWS"><polygon fill="#1ABC9C" points="700.17,273.2375,853.17,273.2375,863.17,291.3859,853.17,309.5344,700.17,309.5344,710.17,291.3859" style="stroke:#181818;stroke-width:0.5;"/><text fill="#000000" font-family="sans-serif" font-size="14" lengthAdjust="spacing" textLength="123" x="720.17" y="296.2326">OpenWoo Service</text></g><!--entity OI--><g id="elem_OI"><path d="M298.17,422.5275 C298.17,412.5275 347.67,412.5275 347.67,412.5275 C347.67,412.5275 397.17,412.5275 397.17,422.5275 L397.17,447.8244 C397.17,457.8244 347.67,457.8244 347.67,457.8244 C347.67,457.8244 298.17,457.8244 298.17,447.8244 L298.17,422.5275 " fill="#1ABC9C" style="stroke:#181818;stroke-width:0.5;"/><path d="M298.17,422.5275 C298.17,432.5275 347.67,432.5275 347.67,432.5275 C347.67,432.5275 397.17,432.5275 397.17,422.5275 " fill="none" style="stroke:#181818;stroke-width:0.5;"/><text fill="#000000" font-family="sans-serif" font-size="14" lengthAdjust="spacing" textLength="79" x="308.17" y="449.5226">Open Index</text></g><!--entity FCS--><g id="elem_FCS"><rect fill="#1ABC9C" height="46.2969" rx="2.5" ry="2.5" style="stroke:#181818;stroke-width:0.5;" width="196" x="220.67" y="268.2375"/><rect fill="#1ABC9C" height="10" style="stroke:#181818;stroke-width:0.5;" width="15" x="396.67" y="273.2375"/><rect fill="#1ABC9C" height="2" style="stroke:#181818;stroke-width:0.5;" width="4" x="394.67" y="275.2375"/><rect fill="#1ABC9C" height="2" style="stroke:#181818;stroke-width:0.5;" width="4" x="394.67" y="279.2375"/><text fill="#000000" font-family="sans-serif" font-size="14" lengthAdjust="spacing" textLength="156" x="235.67" y="301.2326">Federatieve Connectie</text></g><!--entity ZRC--><g id="elem_ZRC"><path d="M472.17,422.5275 C472.17,412.5275 552.67,412.5275 552.67,412.5275 C552.67,412.5275 633.17,412.5275 633.17,422.5275 L633.17,447.8244 C633.17,457.8244 552.67,457.8244 552.67,457.8244 C552.67,457.8244 472.17,457.8244 472.17,447.8244 L472.17,422.5275 " fill="#CCE5FF" style="stroke:#181818;stroke-width:0.5;"/><path d="M472.17,422.5275 C472.17,432.5275 552.67,432.5275 552.67,432.5275 C552.67,432.5275 633.17,432.5275 633.17,422.5275 " fill="none" style="stroke:#181818;stroke-width:0.5;"/><text fill="#000000" font-family="sans-serif" font-size="14" lengthAdjust="spacing" textLength="141" x="482.17" y="449.5226">Zaaksysteem (ZGW)</text></g><!--entity RIS--><g id="elem_RIS"><path d="M668.67,422.5275 C668.67,412.5275 781.67,412.5275 781.67,412.5275 C781.67,412.5275 894.67,412.5275 894.67,422.5275 L894.67,447.8244 C894.67,457.8244 781.67,457.8244 781.67,457.8244 C781.67,457.8244 668.67,457.8244 668.67,447.8244 L668.67,422.5275 " fill="#CCE5FF" style="stroke:#181818;stroke-width:0.5;"/><path d="M668.67,422.5275 C668.67,432.5275 781.67,432.5275 781.67,432.5275 C781.67,432.5275 894.67,432.5275 894.67,422.5275 " fill="none" style="stroke:#181818;stroke-width:0.5;"/><text fill="#000000" font-family="sans-serif" font-size="14" lengthAdjust="spacing" textLength="206" x="678.67" y="449.5226">Raadsinformatiesysteem (RIS)</text></g><!--entity CMS--><g id="elem_CMS"><path d="M930.17,422.5275 C930.17,412.5275 990.67,412.5275 990.67,412.5275 C990.67,412.5275 1051.17,412.5275 1051.17,422.5275 L1051.17,447.8244 C1051.17,457.8244 990.67,457.8244 990.67,457.8244 C990.67,457.8244 930.17,457.8244 930.17,447.8244 L930.17,422.5275 " fill="#CCE5FF" style="stroke:#181818;stroke-width:0.5;"/><path d="M930.17,422.5275 C930.17,432.5275 990.67,432.5275 990.67,432.5275 C990.67,432.5275 1051.17,432.5275 1051.17,422.5275 " fill="none" style="stroke:#181818;stroke-width:0.5;"/><text fill="#000000" font-family="sans-serif" font-size="14" lengthAdjust="spacing" textLength="101" x="940.17" y="449.5226">Website (CMS)</text></g><!--entity DEPOT--><g id="elem_DEPOT"><path d="M1086.17,422.5275 C1086.17,412.5275 1119.67,412.5275 1119.67,412.5275 C1119.67,412.5275 1153.17,412.5275 1153.17,422.5275 L1153.17,447.8244 C1153.17,457.8244 1119.67,457.8244 1119.67,457.8244 C1119.67,457.8244 1086.17,457.8244 1086.17,447.8244 L1086.17,422.5275 " fill="#CCE5FF" style="stroke:#181818;stroke-width:0.5;"/><path d="M1086.17,422.5275 C1086.17,432.5275 1119.67,432.5275 1119.67,432.5275 C1119.67,432.5275 1153.17,432.5275 1153.17,422.5275 " fill="none" style="stroke:#181818;stroke-width:0.5;"/><text fill="#000000" font-family="sans-serif" font-size="14" lengthAdjust="spacing" textLength="47" x="1096.17" y="449.5226">Archief</text></g><!--entity Standaard onderdeel--><g id="elem_Standaard onderdeel"><rect fill="#1ABC9C" height="46.2969" rx="2.5" ry="2.5" style="stroke:#181818;stroke-width:0.5;" width="185" x="750.17" y="106.9375"/><rect fill="#1ABC9C" height="10" style="stroke:#181818;stroke-width:0.5;" width="15" x="915.17" y="111.9375"/><rect fill="#1ABC9C" height="2" style="stroke:#181818;stroke-width:0.5;" width="4" x="913.17" y="113.9375"/><rect fill="#1ABC9C" height="2" style="stroke:#181818;stroke-width:0.5;" width="4" x="913.17" y="117.9375"/><text fill="#000000" font-family="sans-serif" font-size="14" lengthAdjust="spacing" textLength="145" x="765.17" y="139.9326">Standaard onderdeel</text></g><!--entity Optioneel--><g id="elem_Optioneel"><rect fill="#CCE5FF" height="46.2969" rx="2.5" ry="2.5" style="stroke:#181818;stroke-width:0.5;" width="107" x="970.17" y="106.9375"/><rect fill="#CCE5FF" height="10" style="stroke:#181818;stroke-width:0.5;" width="15" x="1057.17" y="111.9375"/><rect fill="#CCE5FF" height="2" style="stroke:#181818;stroke-width:0.5;" width="4" x="1055.17" y="113.9375"/><rect fill="#CCE5FF" height="2" style="stroke:#181818;stroke-width:0.5;" width="4" x="1055.17" y="117.9375"/><text fill="#000000" font-family="sans-serif" font-size="14" lengthAdjust="spacing" textLength="67" x="985.17" y="139.9326">Optioneel</text></g><!--link OWS to ZRC--><g id="link_OWS_ZRC"><path d="M750.7,310.0275 C723.99,325.3875 684.49,348.4375 650.67,369.5275 C628.54,383.3375 609.0246,396.1578 590.0546,408.8678 " fill="none" id="OWS-to-ZRC" style="stroke:#181818;stroke-width:1.0;"/><polygon fill="#181818" points="585.07,412.2075,594.7734,410.521,589.2238,409.4244,590.3204,403.8749,585.07,412.2075" style="stroke:#181818;stroke-width:1.0;"/><text fill="#000000" font-family="sans-serif" font-size="13" lengthAdjust="spacing" textLength="63" x="690.67" y="357.5944">Indexeerd</text></g><!--link OWS to RIS--><g id="link_OWS_RIS"><path d="M781.67,309.7675 C781.67,335.6575 781.67,378.2875 781.67,406.4675 " fill="none" id="OWS-to-RIS" style="stroke:#181818;stroke-width:1.0;"/><polygon fill="#181818" points="781.67,412.4675,785.67,403.4675,781.67,407.4675,777.67,403.4675,781.67,412.4675" style="stroke:#181818;stroke-width:1.0;"/><text fill="#000000" font-family="sans-serif" font-size="13" lengthAdjust="spacing" textLength="63" x="782.67" y="357.5944">Indexeerd</text></g><!--link OWS to CMS--><g id="link_OWS_CMS"><path d="M814.88,310.0075 C841.91,324.8075 880.7,347.0875 912.67,369.5275 C931.39,382.6675 946.6815,395.2015 961.6615,408.2215 " fill="none" id="OWS-to-CMS" style="stroke:#181818;stroke-width:1.0;"/><polygon fill="#181818" points="966.19,412.1575,962.0212,403.2344,962.4162,408.8775,956.7732,409.2725,966.19,412.1575" style="stroke:#181818;stroke-width:1.0;"/><text fill="#000000" font-family="sans-serif" font-size="13" lengthAdjust="spacing" textLength="63" x="899.67" y="357.5944">Indexeerd</text></g><!--link OWS to DEPOT--><g id="link_OWS_DEPOT"><path d="M863.42,300.3775 C924.16,309.4775 1006.85,328.7875 1068.67,369.5275 C1085.03,380.3075 1095.2699,392.9985 1104.2499,407.1785 " fill="none" id="OWS-to-DEPOT" style="stroke:#181818;stroke-width:1.0;"/><polygon fill="#181818" points="1107.46,412.2475,1106.0241,402.5039,1104.7849,408.0233,1099.2654,406.7841,1107.46,412.2475" style="stroke:#181818;stroke-width:1.0;"/><text fill="#000000" font-family="sans-serif" font-size="13" lengthAdjust="spacing" textLength="63" x="1055.67" y="357.5944">Indexeerd</text></g><!--link OWS to OI--><g id="link_OWS_OI"><path d="M699.77,304.7575 C632.76,316.5275 536.38,337.3075 456.67,369.5275 C428.93,380.7475 404.9021,394.9741 383.7821,408.9641 " fill="none" id="OWS-to-OI" style="stroke:#181818;stroke-width:1.0;stroke-dasharray:7.0,7.0;"/><polygon fill="#181818" points="378.78,412.2775,388.4921,410.6421,382.9484,409.5163,384.0742,403.9726,378.78,412.2775" style="stroke:#181818;stroke-width:1.0;"/><text fill="#000000" font-family="sans-serif" font-size="13" lengthAdjust="spacing" textLength="68" x="525.67" y="357.5944">Slaat op in</text></g><!--link FCS to OI--><g id="link_FCS_OI"><path d="M322.24,314.8675 C324.47,328.4175 327.51,346.0075 330.67,361.5275 C334.16,378.6675 337.2782,392.0984 340.7882,406.4884 " fill="none" id="FCS-to-OI" style="stroke:#181818;stroke-width:1.0;stroke-dasharray:7.0,7.0;"/><polygon fill="#181818" points="342.21,412.3175,343.9633,402.626,341.0251,407.4599,336.1912,404.5217,342.21,412.3175" style="stroke:#181818;stroke-width:1.0;"/><text fill="#000000" font-family="sans-serif" font-size="13" lengthAdjust="spacing" textLength="61" x="331.67" y="357.5944">Bevraagd</text></g><!--link KOOP to FCS--><g id="link_KOOP_FCS"><path d="M110.36,138.1075 C74.46,151.5975 6,182.8775 32.67,217.2375 C55.81,247.0375 141.031,265.8373 214.291,277.2073 " fill="none" id="KOOP-to-FCS" style="stroke:#181818;stroke-width:1.0;"/><polygon fill="#181818" points="220.22,278.1275,211.9399,272.7945,215.2792,277.3607,210.713,280.6999,220.22,278.1275" style="stroke:#181818;stroke-width:1.0;"/><text fill="#000000" font-family="sans-serif" font-size="13" lengthAdjust="spacing" textLength="161" x="33.67" y="213.3044">Indexeerd (XML Sitemap)</text></g><!--link WOOGLE to FCS--><g id="link_WOOGLE_FCS"><path d="M204.3,168.5475 C201.26,184.3875 200.8,202.5375 208.67,217.2375 C220.59,239.4675 237.3311,253.1908 258.5311,264.9308 " fill="none" id="WOOGLE-to-FCS" style="stroke:#181818;stroke-width:1.0;"/><polygon fill="#181818" points="263.78,267.8375,257.8444,259.9782,259.4059,265.4152,253.9688,266.9767,263.78,267.8375" style="stroke:#181818;stroke-width:1.0;"/><text fill="#000000" font-family="sans-serif" font-size="13" lengthAdjust="spacing" textLength="97" x="209.67" y="213.3044">Indexeerd (API)</text></g><!--link Website to FCS--><g id="link_Website_FCS"><path d="M318.23,138.7575 C317.52,151.5075 316.16,177.8875 315.67,200.2375 C315.17,223.2475 315.9146,243.5663 316.9046,261.7963 " fill="none" id="Website-to-FCS" style="stroke:#181818;stroke-width:1.0;"/><polygon fill="#181818" points="317.23,267.7875,320.7361,258.5838,316.9589,262.7949,312.7478,259.0176,317.23,267.7875" style="stroke:#181818;stroke-width:1.0;"/><text fill="#000000" font-family="sans-serif" font-size="13" lengthAdjust="spacing" textLength="95" x="316.67" y="213.3044">Bevraagd (API)</text></g><!--link Themasite to FCS--><g id="link_Themasite_FCS"><path d="M435.71,138.9075 C435.44,154.9175 432.96,192.0175 416.67,217.2375 C403.08,238.2775 386.2723,252.2625 366.6323,264.6725 " fill="none" id="Themasite-to-FCS" style="stroke:#181818;stroke-width:1.0;"/><polygon fill="#181818" points="361.56,267.8775,371.3051,266.4515,365.7869,265.2066,367.0317,259.6885,361.56,267.8775" style="stroke:#181818;stroke-width:1.0;"/><text fill="#000000" font-family="sans-serif" font-size="13" lengthAdjust="spacing" textLength="95" x="424.67" y="213.3044">Bevraagd (API)</text></g><!--link Searchsite to FCS--><g id="link_Searchsite_FCS"><path d="M566.27,138.9675 C562.88,155.7675 552.67,195.3075 528.67,217.2375 C497.82,245.4275 461.2904,261.249 422.7304,271.979 " fill="none" id="Searchsite-to-FCS" style="stroke:#181818;stroke-width:1.0;"/><polygon fill="#181818" points="416.95,273.5875,426.6929,275.0283,421.767,272.2471,424.5482,267.3212,416.95,273.5875" style="stroke:#181818;stroke-width:1.0;"/><text fill="#000000" font-family="sans-serif" font-size="13" lengthAdjust="spacing" textLength="95" x="542.67" y="213.3044">Bevraagd (API)</text></g><text fill="#888888" font-family="sans-serif" font-size="10" lengthAdjust="spacing" textLength="68" x="546.835" y="488.1097">OpenWoo.app</text><!--SRC=[VLHDZzf03BtdLrZPG-6mIFtOGpcinDBT5Igh8B8L5JSpSM1ACXDD1lgb_lTwaaaWj24dp_ZvsNuUnqgR4KooBUMas31Y9oq9UpWO80LxElmYoFMML2Q_xNUKa0fIhIsPCKG5gPNM8ooAO4UONDu5mHjO73QP56WbGP6XJRNXF32O8sxX3hxCXa5gC2S8_myCuNS0_A6msa3uEOeM8PzAS1RSlCMD-2ZE403XAegUvu-X0zLc1oOLbvwYu8mhsfJSQmYJ6BmDDqBGNPfUGbztb2FKQEQjZjVmQqrxA70h5LO1CI4BMqVuOluuTM8oHocehFNuq8hHt3Vj5qRpgOJGozi4rbf4gxXBE-DAjgRIicP-tpAVN0rtWXOtM59Dph49_V2yiuvqGkU5LgGiX4_y3YgI8y5KAyKFHlfYdgONnJmO1sXc_gwjnD__MyOQSL_-B2rH3eFrysfOIRXUJZjgd_1BnAIKohqOLr8Rkfp5TIWRFQ7Ds0VJ5uzbemTRhGQb5UhJuo9wRN7SfkzfJhme2JOzdIaMMsG7cWGq2smIeYpiKpSgh6IpGlWKBeSRyssYlwlRUwV6k1uLCLd7nTtskRYvFbVLqQLpDBhdHp26E4Eqe0j-ua7W1bmxO0mFT3GyrYG8geLis1pcZ0m6Nr_c4BFIEHR3mAzbBtYouDz2CvekgiddGQT5l0exMxzhkBy0]--></g></svg>