<?xml version="1.0" encoding="us-ascii" standalone="no"?><svg xmlns="http://www.w3.org/2000/svg" xmlns:xlink="http://www.w3.org/1999/xlink" contentStyleType="text/css" height="498px" preserveAspectRatio="none" style="width:1186px;height:498px;background:#FFFFFF;" version="1.1" viewBox="0 0 1186 498" width="1186px" zoomAndPan="magnify"><defs/><g><text fill="#888888" font-family="sans-serif" font-size="10" lengthAdjust="spacing" textLength="68" x="1104" y="9.2822">OpenWoo.app</text><text fill="#000000" font-family="sans-serif" font-size="14" font-weight="bold" lengthAdjust="spacing" textLength="339" x="416.5" y="35.6357">Samenwerking OpenWoo.app en Datamask</text><!--cluster Publicatie platformen --><g id="cluster_Publicatie platformen "><rect fill="none" height="127.3" rx="2.5" ry="2.5" style="stroke:#181818;stroke-width:1.0;" width="443" x="397" y="56.9375"/><path d="M579,56.9375 L579,66.2344 L569,76.2344 L397,76.2344 " fill="none" style="stroke:#181818;stroke-width:1.0;"/><text fill="#000000" font-family="sans-serif" font-size="14" font-weight="bold" lengthAdjust="spacing" textLength="167" x="400" y="70.9326">Publicatie platformen</text></g><!--cluster Integratie--><g id="cluster_Integratie"><rect fill="none" height="240.59" rx="2.5" ry="2.5" style="stroke:#181818;stroke-width:1.0;" width="426" x="151" y="233.2375"/><path d="M237,233.2375 L237,242.5344 L227,252.5344 L151,252.5344 " fill="none" style="stroke:#181818;stroke-width:1.0;"/><text fill="#000000" font-family="sans-serif" font-size="14" font-weight="bold" lengthAdjust="spacing" textLength="76" x="154" y="247.2326">Integratie</text></g><!--cluster API--><g id="cluster_API"><rect fill="none" height="96.3" rx="2.5" ry="2.5" style="stroke:#181818;stroke-width:1.0;" width="120" x="7" y="377.5275"/><path d="M42,377.5275 L42,386.8244 L32,396.8244 L7,396.8244 " fill="none" style="stroke:#181818;stroke-width:1.0;"/><text fill="#000000" font-family="sans-serif" font-size="14" font-weight="bold" lengthAdjust="spacing" textLength="25" x="10" y="391.5226">API</text></g><!--cluster Legenda--><g id="cluster_Legenda"><rect fill="none" height="97.3" rx="2.5" ry="2.5" style="stroke:#181818;stroke-width:1.0;" width="316" x="864" y="71.9375"/><path d="M942,71.9375 L942,81.2344 L932,91.2344 L864,91.2344 " fill="none" style="stroke:#181818;stroke-width:1.0;"/><text fill="#000000" font-family="sans-serif" font-size="14" font-weight="bold" lengthAdjust="spacing" textLength="68" x="867" y="85.9326">Legenda</text></g><!--entity KOOP--><g id="elem_KOOP"><ellipse cx="433" cy="100.4375" fill="#008B6C" rx="8" ry="8" style="stroke:#181818;stroke-width:0.5;"/><path d="M433,108.4375 L433,135.4375 M420,116.4375 L446,116.4375 M433,135.4375 L420,150.4375 M433,135.4375 L446,150.4375 " fill="none" style="stroke:#181818;stroke-width:0.5;"/><text fill="#000000" font-family="sans-serif" font-size="14" lengthAdjust="spacing" textLength="40" x="413" y="164.9326">KOOP</text></g><!--entity WOOGLE--><g id="elem_WOOGLE"><ellipse cx="519" cy="100.4375" fill="#008B6C" rx="8" ry="8" style="stroke:#181818;stroke-width:0.5;"/><path d="M519,108.4375 L519,135.4375 M506,116.4375 L532,116.4375 M519,135.4375 L506,150.4375 M519,135.4375 L532,150.4375 " fill="none" style="stroke:#181818;stroke-width:0.5;"/><text fill="#000000" font-family="sans-serif" font-size="14" lengthAdjust="spacing" textLength="62" x="488" y="164.9326">WOOGLE</text></g><!--entity Website--><g id="elem_Website"><ellipse cx="621" cy="130.0875" fill="#008B6C" rx="8" ry="8" style="stroke:#181818;stroke-width:0.5;"/><text fill="#000000" font-family="sans-serif" font-size="14" lengthAdjust="spacing" textLength="56" x="593" y="160.0826">Website</text></g><!--entity PublicatiePagina--><g id="elem_PublicatiePagina"><ellipse cx="758" cy="130.0875" fill="#F16E06" rx="8" ry="8" style="stroke:#181818;stroke-width:0.5;"/><text fill="#000000" font-family="sans-serif" font-size="14" lengthAdjust="spacing" textLength="116" x="700" y="160.0826">Publicatie pagina</text></g><!--entity OI--><g id="elem_OI"><path d="M449.5,422.5275 C449.5,412.5275 499,412.5275 499,412.5275 C499,412.5275 548.5,412.5275 548.5,422.5275 L548.5,447.8244 C548.5,457.8244 499,457.8244 499,457.8244 C499,457.8244 449.5,457.8244 449.5,447.8244 L449.5,422.5275 " fill="#008B6C" style="stroke:#181818;stroke-width:0.5;"/><path d="M449.5,422.5275 C449.5,432.5275 499,432.5275 499,432.5275 C499,432.5275 548.5,432.5275 548.5,422.5275 " fill="none" style="stroke:#181818;stroke-width:0.5;"/><text fill="#000000" font-family="sans-serif" font-size="14" lengthAdjust="spacing" textLength="79" x="459.5" y="449.5226">Open Index</text></g><!--entity FCS--><g id="elem_FCS"><rect fill="#008B6C" height="46.2969" rx="2.5" ry="2.5" style="stroke:#181818;stroke-width:0.5;" width="196" x="365" y="268.2375"/><rect fill="#008B6C" height="10" style="stroke:#181818;stroke-width:0.5;" width="15" x="541" y="273.2375"/><rect fill="#008B6C" height="2" style="stroke:#181818;stroke-width:0.5;" width="4" x="539" y="275.2375"/><rect fill="#008B6C" height="2" style="stroke:#181818;stroke-width:0.5;" width="4" x="539" y="279.2375"/><text fill="#000000" font-family="sans-serif" font-size="14" lengthAdjust="spacing" textLength="156" x="380" y="301.2326">Federatieve Connectie</text></g><!--entity OWS--><g id="elem_OWS"><polygon fill="#008B6C" points="167.5,273.2375,320.5,273.2375,330.5,291.3859,320.5,309.5344,167.5,309.5344,177.5,291.3859" style="stroke:#181818;stroke-width:0.5;"/><text fill="#000000" font-family="sans-serif" font-size="14" lengthAdjust="spacing" textLength="123" x="187.5" y="296.2326">OpenWoo Service</text></g><!--entity DatamaskDB--><g id="elem_DatamaskDB"><path d="M22.5,422.5275 C22.5,412.5275 67,412.5275 67,412.5275 C67,412.5275 111.5,412.5275 111.5,422.5275 L111.5,447.8244 C111.5,457.8244 67,457.8244 67,457.8244 C67,457.8244 22.5,457.8244 22.5,447.8244 L22.5,422.5275 " fill="#F16E06" style="stroke:#181818;stroke-width:0.5;"/><path d="M22.5,422.5275 C22.5,432.5275 67,432.5275 67,432.5275 C67,432.5275 111.5,432.5275 111.5,422.5275 " fill="none" style="stroke:#181818;stroke-width:0.5;"/><text fill="#000000" font-family="sans-serif" font-size="14" lengthAdjust="spacing" textLength="69" x="32.5" y="449.5226">Datamask</text></g><!--entity OpenWoo.app--><g id="elem_OpenWoo.app"><rect fill="#008B6C" height="46.2969" rx="2.5" ry="2.5" style="stroke:#181818;stroke-width:0.5;" width="139" x="880.5" y="106.9375"/><rect fill="#008B6C" height="10" style="stroke:#181818;stroke-width:0.5;" width="15" x="999.5" y="111.9375"/><rect fill="#008B6C" height="2" style="stroke:#181818;stroke-width:0.5;" width="4" x="997.5" y="113.9375"/><rect fill="#008B6C" height="2" style="stroke:#181818;stroke-width:0.5;" width="4" x="997.5" y="117.9375"/><text fill="#000000" font-family="sans-serif" font-size="14" lengthAdjust="spacing" textLength="99" x="895.5" y="139.9326">OpenWoo.app</text></g><!--entity Datamask--><g id="elem_Datamask"><rect fill="#F16E06" height="46.2969" rx="2.5" ry="2.5" style="stroke:#181818;stroke-width:0.5;" width="109" x="1054.5" y="106.9375"/><rect fill="#F16E06" height="10" style="stroke:#181818;stroke-width:0.5;" width="15" x="1143.5" y="111.9375"/><rect fill="#F16E06" height="2" style="stroke:#181818;stroke-width:0.5;" width="4" x="1141.5" y="113.9375"/><rect fill="#F16E06" height="2" style="stroke:#181818;stroke-width:0.5;" width="4" x="1141.5" y="117.9375"/><text fill="#000000" font-family="sans-serif" font-size="14" lengthAdjust="spacing" textLength="69" x="1069.5" y="139.9326">Datamask</text></g><!--reverse link OWS to DatamaskDB--><g id="link_OWS_DatamaskDB"><path d="M215.95,313.183 C200.84,322.943 187.08,332.2975 171,344.5275 C142.35,366.3275 111.32,393.5975 90.68,412.3075 " fill="none" id="OWS-backto-DatamaskDB" style="stroke:#181818;stroke-width:1.0;"/><polygon fill="#181818" points="220.99,309.9275,211.2596,311.4507,216.79,312.6404,215.6003,318.1708,220.99,309.9275" style="stroke:#181818;stroke-width:1.0;"/><text fill="#000000" font-family="sans-serif" font-size="13" lengthAdjust="spacing" textLength="97" x="172" y="357.5944">Woo verzoeken</text></g><!--link OWS to OI--><g id="link_OWS_OI"><path d="M279.91,309.9075 C325.37,335.6975 405.0313,380.877 454.7413,409.077 " fill="none" id="OWS-to-OI" style="stroke:#181818;stroke-width:1.0;stroke-dasharray:7.0,7.0;"/><polygon fill="#181818" points="459.96,412.0375,454.1056,404.1175,455.6111,409.5704,450.1582,411.0758,459.96,412.0375" style="stroke:#181818;stroke-width:1.0;"/><text fill="#000000" font-family="sans-serif" font-size="13" lengthAdjust="spacing" textLength="68" x="368" y="357.5944">Slaat op in</text></g><!--link FCS to OI--><g id="link_FCS_OI"><path d="M468.7,314.8475 C475.48,341.5575 485.2426,380.0122 491.9626,406.4622 " fill="none" id="FCS-to-OI" style="stroke:#181818;stroke-width:1.0;"/><polygon fill="#181818" points="493.44,412.2775,495.1007,402.5697,492.2088,407.4315,487.347,404.5396,493.44,412.2775" style="stroke:#181818;stroke-width:1.0;"/><text fill="#000000" font-family="sans-serif" font-size="13" lengthAdjust="spacing" textLength="61" x="481" y="357.5944">Bevraagd</text></g><!--link KOOP to FCS--><g id="link_KOOP_FCS"><path d="M412.74,135.5275 C368.12,146.1975 268.05,175.5175 303,217.2375 C316.05,232.8075 328.89,218.3475 348,225.2375 C377.36,235.8075 402.9309,250.2962 425.1909,264.5862 " fill="none" id="KOOP-to-FCS" style="stroke:#181818;stroke-width:1.0;"/><polygon fill="#181818" points="430.24,267.8275,424.8272,259.5994,426.0324,265.1264,420.5054,266.3316,430.24,267.8275" style="stroke:#181818;stroke-width:1.0;"/><text fill="#000000" font-family="sans-serif" font-size="13" lengthAdjust="spacing" textLength="161" x="304" y="213.3044">Indexeerd (XML Sitemap)</text></g><!--link WOOGLE to FCS--><g id="link_WOOGLE_FCS"><path d="M505.87,168.4375 C495.01,199.3275 481.9312,236.5375 472.8512,262.3475 " fill="none" id="WOOGLE-to-FCS" style="stroke:#181818;stroke-width:1.0;"/><polygon fill="#181818" points="470.86,268.0075,477.6201,260.845,472.5193,263.2909,470.0735,258.1901,470.86,268.0075" style="stroke:#181818;stroke-width:1.0;"/><text fill="#000000" font-family="sans-serif" font-size="13" lengthAdjust="spacing" textLength="97" x="496" y="213.3044">Indexeerd (API)</text></g><!--link Website to OI--><g id="link_Website_OI"><path d="M619.39,138.7075 C616.18,153.7475 608.76,188.2975 602,217.2375 C591.87,260.6075 594.59,273.1975 578,314.5275 C569.03,336.8875 564.03,341.2675 551,361.5275 C539.76,379.0175 529.6084,393.274 519.0884,407.494 " fill="none" id="Website-to-OI" style="stroke:#181818;stroke-width:1.0;"/><polygon fill="#181818" points="515.52,412.3175,524.0883,407.4612,518.4937,408.2979,517.657,402.7033,515.52,412.3175" style="stroke:#181818;stroke-width:1.0;"/><text fill="#000000" font-family="sans-serif" font-size="13" lengthAdjust="spacing" textLength="95" x="602" y="295.9444">Bevraagd (API)</text></g><!--link PublicatiePagina to OI--><g id="link_PublicatiePagina_OI"><path d="M757.81,138.9875 C756.75,166.2975 749.92,258.1075 706,314.5275 C665.59,366.4475 601.4773,397.8026 554.2273,415.7926 " fill="none" id="PublicatiePagina-to-OI" style="stroke:#181818;stroke-width:1.0;"/><polygon fill="#181818" points="548.62,417.9275,558.4543,418.4633,553.2928,416.1484,555.6077,410.9869,548.62,417.9275" style="stroke:#181818;stroke-width:1.0;"/><text fill="#000000" font-family="sans-serif" font-size="13" lengthAdjust="spacing" textLength="95" x="746" y="295.9444">Bevraagd (API)</text></g><text fill="#888888" font-family="sans-serif" font-size="10" lengthAdjust="spacing" textLength="68" x="552" y="488.1097">OpenWoo.app</text><!--SRC=[VL9DJyCm3BtdLrZXm3Xq6Y0cL26aVQA9eKwgqBXwhLUgRKcLXWs1-Eyu_M0TO-IKnC_FVi-sgLqJXBWXjIEpIbK2GKPghdKRimn8mH0jRZ1VYQNMbepVZ8jNmlZtdn3dC7jRhDC8RKgGhT4kjU42q9eY9d03pvCBiJHS4-JVG0cV0lXWPBK1-HW4Cycl7DmDpZgTsqLtq400o7aGF4n7qe7Awm4iLTpw4YEkEAT5dbgIq0kXkf-2Dfl395LOqEz_PyKdd8qlkwDELto9Glk42H9JP9M2ht_KxaErmfZTNM3ECMSXvyRqNaeD9WTjHNgJQKNAWXmJU-v8jWG3hHH51Q5B6W_2WwpCw8Zol6Jd0K58Pfj65JgOxz5VhlM-SNJreAv- -kxD9iSDrujHc58_Xlsc7LNwb19ICTOK3IcDlP6dvExhrCnycDnrV-TvZT8-E8bRCX-QLgGAHBjzprRw4AuHBUYCvok4iydpN01ywDFMiDnOY6Axl5Zl5CSSnYy7GcHYQBqyJI7aRTbWTY6g7Ji9PiSOLArNZJeeLs6EjkaVy3S0]--></g></svg>