<?xml version="1.0" encoding="us-ascii" standalone="no"?><svg xmlns="http://www.w3.org/2000/svg" xmlns:xlink="http://www.w3.org/1999/xlink" contentStyleType="text/css" height="968px" preserveAspectRatio="none" style="width:660px;height:968px;background:#FFFFFF;" version="1.1" viewBox="0 0 660 968" width="660px" zoomAndPan="magnify"><defs/><g><text fill="#000000" font-family="sans-serif" font-size="14" font-weight="bold" lengthAdjust="spacing" textLength="75" x="285.5" y="22.9951">Federatie</text><!--cluster Landelijke voorziening 1--><g id="cluster_Landelijke voorziening 1"><rect fill="none" height="376.59" rx="2.5" ry="2.5" style="stroke:#181818;stroke-width:1.0;" width="208" x="193" y="44.2969"/><path d="M395,44.2969 L395,53.5938 L385,63.5938 L193,63.5938 " fill="none" style="stroke:#181818;stroke-width:1.0;"/><text fill="#000000" font-family="sans-serif" font-size="14" font-weight="bold" lengthAdjust="spacing" textLength="192" x="196" y="58.292">Landelijke voorziening 1</text></g><!--cluster Organisatie 1--><g id="cluster_Organisatie 1"><rect fill="none" height="366.89" rx="2.5" ry="2.5" style="stroke:#181818;stroke-width:1.0;" width="201" x="7" y="469.8869"/><path d="M122,469.8869 L122,479.1838 L112,489.1838 L7,489.1838 " fill="none" style="stroke:#181818;stroke-width:1.0;"/><text fill="#000000" font-family="sans-serif" font-size="14" font-weight="bold" lengthAdjust="spacing" textLength="105" x="10" y="483.882">Organisatie 1</text></g><!--cluster Organisatie 2--><g id="cluster_Organisatie 2"><rect fill="none" height="345.89" rx="2.5" ry="2.5" style="stroke:#181818;stroke-width:1.0;" width="201" x="346" y="616.1869"/><path d="M461,616.1869 L461,625.4838 L451,635.4838 L346,635.4838 " fill="none" style="stroke:#181818;stroke-width:1.0;"/><text fill="#000000" font-family="sans-serif" font-size="14" font-weight="bold" lengthAdjust="spacing" textLength="105" x="349" y="630.182">Organisatie 2</text></g><!--cluster Organisatie 3--><g id="cluster_Organisatie 3"><rect fill="none" height="243.59" rx="2.5" ry="2.5" style="stroke:#181818;stroke-width:1.0;" width="201" x="447" y="323.5969"/><path d="M562,323.5969 L562,332.8937 L552,342.8937 L447,342.8937 " fill="none" style="stroke:#181818;stroke-width:1.0;"/><text fill="#000000" font-family="sans-serif" font-size="14" font-weight="bold" lengthAdjust="spacing" textLength="105" x="450" y="337.592">Organisatie 3</text></g><!--entity KOOP--><g id="elem_KOOP"><ellipse cx="296" cy="108.2969" fill="#1ABC9C" rx="8" ry="8" style="stroke:#181818;stroke-width:0.5;"/><text fill="#000000" font-family="sans-serif" font-size="14" lengthAdjust="spacing" textLength="78" x="257" y="138.292">Koophulpje</text></g><!--entity Api--><g id="elem_Api"><rect fill="#1ABC9C" height="46.2969" rx="2.5" ry="2.5" style="stroke:#181818;stroke-width:0.5;" width="133" x="229.5" y="214.2969"/><rect fill="#1ABC9C" height="10" style="stroke:#181818;stroke-width:0.5;" width="15" x="342.5" y="219.2969"/><rect fill="#1ABC9C" height="2" style="stroke:#181818;stroke-width:0.5;" width="4" x="340.5" y="221.2969"/><rect fill="#1ABC9C" height="2" style="stroke:#181818;stroke-width:0.5;" width="4" x="340.5" y="225.2969"/><text fill="#000000" font-family="sans-serif" font-size="14" lengthAdjust="spacing" textLength="93" x="244.5" y="247.292">Landelijke API</text></g><!--entity NLX--><g id="elem_NLX"><rect fill="#CCE5FF" height="46.2969" rx="2.5" ry="2.5" style="stroke:#181818;stroke-width:0.5;" width="121" x="222.5" y="358.5969"/><rect fill="#CCE5FF" height="10" style="stroke:#181818;stroke-width:0.5;" width="15" x="323.5" y="363.5969"/><rect fill="#CCE5FF" height="2" style="stroke:#181818;stroke-width:0.5;" width="4" x="321.5" y="365.5969"/><rect fill="#CCE5FF" height="2" style="stroke:#181818;stroke-width:0.5;" width="4" x="321.5" y="369.5969"/><text fill="#000000" font-family="sans-serif" font-size="14" lengthAdjust="spacing" textLength="81" x="237.5" y="391.592">NLX Outway</text></g><!--entity Org1--><g id="elem_Org1"><rect fill="#CCE5FF" height="46.2969" rx="2.5" ry="2.5" style="stroke:#181818;stroke-width:0.5;" width="108" x="32" y="504.8869"/><rect fill="#CCE5FF" height="10" style="stroke:#181818;stroke-width:0.5;" width="15" x="120" y="509.8869"/><rect fill="#CCE5FF" height="2" style="stroke:#181818;stroke-width:0.5;" width="4" x="118" y="511.8869"/><rect fill="#CCE5FF" height="2" style="stroke:#181818;stroke-width:0.5;" width="4" x="118" y="515.8869"/><text fill="#000000" font-family="sans-serif" font-size="14" lengthAdjust="spacing" textLength="68" x="47" y="537.882">NLX Inway</text></g><!--entity OI1--><g id="elem_OI1"><rect fill="#1ABC9C" height="46.2969" rx="2.5" ry="2.5" style="stroke:#181818;stroke-width:0.5;" width="119" x="23.5" y="651.1869"/><rect fill="#1ABC9C" height="10" style="stroke:#181818;stroke-width:0.5;" width="15" x="122.5" y="656.1869"/><rect fill="#1ABC9C" height="2" style="stroke:#181818;stroke-width:0.5;" width="4" x="120.5" y="658.1869"/><rect fill="#1ABC9C" height="2" style="stroke:#181818;stroke-width:0.5;" width="4" x="120.5" y="662.1869"/><text fill="#000000" font-family="sans-serif" font-size="14" lengthAdjust="spacing" textLength="79" x="38.5" y="684.182">Open Index</text></g><!--entity BronnenOrg1--><g id="elem_BronnenOrg1"><rect fill="#CCE5FF" height="46.2969" rx="2.5" ry="2.5" style="stroke:#181818;stroke-width:0.5;" width="100" x="23" y="774.4869"/><rect fill="#CCE5FF" height="10" style="stroke:#181818;stroke-width:0.5;" width="15" x="103" y="779.4869"/><rect fill="#CCE5FF" height="2" style="stroke:#181818;stroke-width:0.5;" width="4" x="101" y="781.4869"/><rect fill="#CCE5FF" height="2" style="stroke:#181818;stroke-width:0.5;" width="4" x="101" y="785.4869"/><text fill="#000000" font-family="sans-serif" font-size="14" lengthAdjust="spacing" textLength="60" x="38" y="807.482">Bronnen</text></g><!--entity Org2--><g id="elem_Org2"><rect fill="#CCE5FF" height="46.2969" rx="2.5" ry="2.5" style="stroke:#181818;stroke-width:0.5;" width="108" x="362" y="651.1869"/><rect fill="#CCE5FF" height="10" style="stroke:#181818;stroke-width:0.5;" width="15" x="450" y="656.1869"/><rect fill="#CCE5FF" height="2" style="stroke:#181818;stroke-width:0.5;" width="4" x="448" y="658.1869"/><rect fill="#CCE5FF" height="2" style="stroke:#181818;stroke-width:0.5;" width="4" x="448" y="662.1869"/><text fill="#000000" font-family="sans-serif" font-size="14" lengthAdjust="spacing" textLength="68" x="377" y="684.182">NLX Inway</text></g><!--entity OI2--><g id="elem_OI2"><rect fill="#1ABC9C" height="46.2969" rx="2.5" ry="2.5" style="stroke:#181818;stroke-width:0.5;" width="119" x="362.5" y="774.4869"/><rect fill="#1ABC9C" height="10" style="stroke:#181818;stroke-width:0.5;" width="15" x="461.5" y="779.4869"/><rect fill="#1ABC9C" height="2" style="stroke:#181818;stroke-width:0.5;" width="4" x="459.5" y="781.4869"/><rect fill="#1ABC9C" height="2" style="stroke:#181818;stroke-width:0.5;" width="4" x="459.5" y="785.4869"/><text fill="#000000" font-family="sans-serif" font-size="14" lengthAdjust="spacing" textLength="79" x="377.5" y="807.482">Open Index</text></g><!--entity BronnenOrg2--><g id="elem_BronnenOrg2"><rect fill="#CCE5FF" height="46.2969" rx="2.5" ry="2.5" style="stroke:#181818;stroke-width:0.5;" width="100" x="362" y="899.7769"/><rect fill="#CCE5FF" height="10" style="stroke:#181818;stroke-width:0.5;" width="15" x="442" y="904.7769"/><rect fill="#CCE5FF" height="2" style="stroke:#181818;stroke-width:0.5;" width="4" x="440" y="906.7769"/><rect fill="#CCE5FF" height="2" style="stroke:#181818;stroke-width:0.5;" width="4" x="440" y="910.7769"/><text fill="#000000" font-family="sans-serif" font-size="14" lengthAdjust="spacing" textLength="60" x="377" y="932.772">Bronnen</text></g><!--entity OI3--><g id="elem_OI3"><rect fill="#1ABC9C" height="46.2969" rx="2.5" ry="2.5" style="stroke:#181818;stroke-width:0.5;" width="119" x="463.5" y="358.5969"/><rect fill="#1ABC9C" height="10" style="stroke:#181818;stroke-width:0.5;" width="15" x="562.5" y="363.5969"/><rect fill="#1ABC9C" height="2" style="stroke:#181818;stroke-width:0.5;" width="4" x="560.5" y="365.5969"/><rect fill="#1ABC9C" height="2" style="stroke:#181818;stroke-width:0.5;" width="4" x="560.5" y="369.5969"/><text fill="#000000" font-family="sans-serif" font-size="14" lengthAdjust="spacing" textLength="79" x="478.5" y="391.592">Open Index</text></g><!--entity BronnenOrg3--><g id="elem_BronnenOrg3"><rect fill="#CCE5FF" height="46.2969" rx="2.5" ry="2.5" style="stroke:#181818;stroke-width:0.5;" width="100" x="465" y="504.8869"/><rect fill="#CCE5FF" height="10" style="stroke:#181818;stroke-width:0.5;" width="15" x="545" y="509.8869"/><rect fill="#CCE5FF" height="2" style="stroke:#181818;stroke-width:0.5;" width="4" x="543" y="511.8869"/><rect fill="#CCE5FF" height="2" style="stroke:#181818;stroke-width:0.5;" width="4" x="543" y="515.8869"/><text fill="#000000" font-family="sans-serif" font-size="14" lengthAdjust="spacing" textLength="60" x="480" y="537.882">Bronnen</text></g><!--link KOOP to Api--><g id="link_KOOP_Api"><path d="M296,117.2469 C296,136.2769 296,178.9869 296,207.9069 " fill="none" id="KOOP-to-Api" style="stroke:#181818;stroke-width:1.0;"/><polygon fill="#181818" points="296,213.9069,300,204.9069,296,208.9069,292,204.9069,296,213.9069" style="stroke:#181818;stroke-width:1.0;"/><text fill="#000000" font-family="sans-serif" font-size="13" lengthAdjust="spacing" textLength="52" x="297" y="180.3638">Ajax call</text></g><!--link Api to NLX--><g id="link_Api_NLX"><path d="M293.94,260.9869 C291.51,287.6369 288.0258,325.7218 285.5958,352.3218 " fill="none" id="Api-to-NLX" style="stroke:#181818;stroke-width:1.0;"/><polygon fill="#181818" points="285.05,358.2969,289.8522,349.6981,285.5049,353.3176,281.8854,348.9703,285.05,358.2969" style="stroke:#181818;stroke-width:1.0;"/><text fill="#000000" font-family="sans-serif" font-size="13" lengthAdjust="spacing" textLength="112" x="292" y="303.6638">Bevragen via NLX</text></g><!--link Api to OI3--><g id="link_Api_OI3"><path d="M354.99,261.0869 C374.06,269.3469 394.93,279.4369 413,290.5969 C445.15,310.4369 473.7371,334.7025 495.0971,354.2825 " fill="none" id="Api-to-OI3" style="stroke:#181818;stroke-width:1.0;"/><polygon fill="#181818" points="499.52,358.3369,495.5885,349.3067,495.8342,354.9583,490.1827,355.204,499.52,358.3369" style="stroke:#181818;stroke-width:1.0;"/><text fill="#000000" font-family="sans-serif" font-size="13" lengthAdjust="spacing" textLength="145" x="436" y="303.6638">Federatieve zoekvraag</text></g><!--link NLX to Org1--><g id="link_NLX_Org1"><path d="M222.03,387.2269 C184.86,393.1269 139.06,406.5469 110,436.8869 C92.64,455.0169 87.8995,478.2602 86.5495,498.4902 " fill="none" id="NLX-to-Org1" style="stroke:#181818;stroke-width:1.0;"/><polygon fill="#181818" points="86.15,504.4769,90.7404,495.7632,86.4829,499.488,82.7581,495.2305,86.15,504.4769" style="stroke:#181818;stroke-width:1.0;"/><text fill="#000000" font-family="sans-serif" font-size="13" lengthAdjust="spacing" textLength="145" x="111" y="449.9538">Federatieve zoekvraag</text></g><!--link NLX to Org2--><g id="link_NLX_Org2"><path d="M279.71,405.3169 C275.34,442.8969 271.21,519.6569 300,575.1869 C316.82,607.6269 344.3564,630.4215 370.7164,647.5215 " fill="none" id="NLX-to-Org2" style="stroke:#181818;stroke-width:1.0;"/><polygon fill="#181818" points="375.75,650.7869,370.3765,642.5331,371.5553,648.0657,366.0227,649.2446,375.75,650.7869" style="stroke:#181818;stroke-width:1.0;"/><text fill="#000000" font-family="sans-serif" font-size="13" lengthAdjust="spacing" textLength="145" x="301" y="532.6038">Federatieve zoekvraag</text></g><!--link Org1 to OI1--><g id="link_Org1_OI1"><path d="M85.53,551.5869 C84.97,578.6969 84.1542,617.9082 83.5942,644.9482 " fill="none" id="Org1-to-OI1" style="stroke:#181818;stroke-width:1.0;"/><polygon fill="#181818" points="83.47,650.9469,87.6555,642.0316,83.5735,645.9479,79.6572,641.866,83.47,650.9469" style="stroke:#181818;stroke-width:1.0;"/><text fill="#000000" font-family="sans-serif" font-size="13" lengthAdjust="spacing" textLength="132" x="86" y="596.2538">Bevragen bij de bron</text></g><!--link Org2 to OI2--><g id="link_Org2_OI2"><path d="M417.11,697.8669 C418.19,719.6569 419.525,746.4841 420.595,768.2241 " fill="none" id="Org2-to-OI2" style="stroke:#181818;stroke-width:1.0;"/><polygon fill="#181818" points="420.89,774.2169,424.4427,765.0311,420.6442,769.2229,416.4524,765.4244,420.89,774.2169" style="stroke:#181818;stroke-width:1.0;"/><text fill="#000000" font-family="sans-serif" font-size="13" lengthAdjust="spacing" textLength="132" x="420" y="740.5538">Bevragen bij de bron</text></g><!--link OI1 to BronnenOrg1--><g id="link_OI1_BronnenOrg1"><path d="M70.67,697.7469 C66.4,706.7169 62.14,717.3169 60,727.4869 C56.73,743.0169 58.3768,754.8687 62.5168,768.4187 " fill="none" id="OI1-to-BronnenOrg1" style="stroke:#181818;stroke-width:1.0;"/><polygon fill="#181818" points="64.27,774.1569,65.4656,764.3809,62.809,769.3751,57.8148,766.7185,64.27,774.1569" style="stroke:#181818;stroke-width:1.0;"/><text fill="#000000" font-family="sans-serif" font-size="13" lengthAdjust="spacing" textLength="122" x="61" y="740.5538">Internal connection</text></g><!--link OI1 to OI2--><g id="link_OI1_OI2"><path d="M142.83,696.7369 C204.6,718.8469 294.7908,751.1154 356.5508,773.2154 " fill="none" id="OI1-to-OI2" style="stroke:#181818;stroke-width:1.0;"/><polygon fill="#181818" points="362.2,775.2369,355.0739,768.4385,357.4923,773.5523,352.3785,775.9708,362.2,775.2369" style="stroke:#181818;stroke-width:1.0;"/><text fill="#000000" font-family="sans-serif" font-size="13" lengthAdjust="spacing" textLength="128" x="273" y="740.5538">Zoeken bij de buren</text></g><!--link OI2 to BronnenOrg2--><g id="link_OI2_BronnenOrg2"><path d="M420.17,821.2469 C418.36,843.4969 416.1049,871.2765 414.3049,893.4765 " fill="none" id="OI2-to-BronnenOrg2" style="stroke:#181818;stroke-width:1.0;"/><polygon fill="#181818" points="413.82,899.4569,418.5343,890.8096,414.2241,894.4732,410.5604,890.1631,413.82,899.4569" style="stroke:#181818;stroke-width:1.0;"/><text fill="#000000" font-family="sans-serif" font-size="13" lengthAdjust="spacing" textLength="132" x="418" y="865.8438">Bevragen bij de bron</text></g><!--link OI3 to BronnenOrg3--><g id="link_OI3_BronnenOrg3"><path d="M521.75,405.2869 C520.25,432.3969 518.0725,471.6261 516.5725,498.6561 " fill="none" id="OI3-to-BronnenOrg3" style="stroke:#181818;stroke-width:1.0;"/><polygon fill="#181818" points="516.24,504.6469,520.7325,495.8823,516.517,499.6546,512.7448,495.4391,516.24,504.6469" style="stroke:#181818;stroke-width:1.0;"/><text fill="#000000" font-family="sans-serif" font-size="13" lengthAdjust="spacing" textLength="132" x="520" y="449.9538">Bevragen bij de bron</text></g><!--SRC=[bPD1Ru8m5CVl_HGlUjZ90oKxZCCIFImXcc5sMdQhvO55R4b1T2xxxclh57IG8QUs_Ff_lpmUbQXoX1UCKRDA824aqMoBC5em6MCkiWr2hPG-2fH2fk2Du8k0UOIiK2UC6tIkLB7UvKM68s0bpADe2MEFhVWJToXNsq99bDLLwdGPEdnQY3xwTV4EqQxQiqz7sksOStnC4l9z4OrqogGehNrZTnCIodE6eRrBo0qP5IWD6kFXX8PUdzXCAsbM3ljTNmLtsz4XTdIm7RtFZlvZvtVO_QdftrVJRzTyW3VCJIaboxKeIkBcP1AhlPmykoa8O9gn0t2MvyJkp-ziZmAOOQrPQdngmUmHkMAiMj3CSOrmLBWnDrXAxFqBPp_JG93sWYwbAUsrzLOYWnXXPPf0N4Z3KUW5moQlFL21wRxvpoJBJRFDARVjEz6dn00-Z5KhRQVH0hGZZlPNzw63ztlu7m00]--></g></svg>