<?xml version="1.0" encoding="us-ascii" standalone="no"?><svg xmlns="http://www.w3.org/2000/svg" xmlns:xlink="http://www.w3.org/1999/xlink" contentStyleType="text/css" height="351px" preserveAspectRatio="none" style="width:687px;height:351px;background:#FFFFFF;" version="1.1" viewBox="0 0 687 351" width="687px" zoomAndPan="magnify"><defs/><g><text fill="#888888" font-family="sans-serif" font-size="10" lengthAdjust="spacing" textLength="68" x="605" y="9.2822">OpenWoo.app</text><text fill="#000000" font-family="sans-serif" font-size="14" font-weight="bold" lengthAdjust="spacing" textLength="79" x="297" y="35.6357">Motorblok</text><!--cluster Publicatie platformen --><g id="cluster_Publicatie platformen "><rect fill="none" height="109" rx="2.5" ry="2.5" style="stroke:#181818;stroke-width:1.0;" width="188" x="7" y="56.9375"/><path d="M189,56.9375 L189,66.2344 L179,76.2344 L7,76.2344 " fill="none" style="stroke:#181818;stroke-width:1.0;"/><text fill="#000000" font-family="sans-serif" font-size="14" font-weight="bold" lengthAdjust="spacing" textLength="167" x="10" y="70.9326">Publicatie platformen</text></g><!--cluster Services--><g id="cluster_Services"><rect fill="none" height="87.3" rx="2.5" ry="2.5" style="stroke:#181818;stroke-width:1.0;" width="196" x="255" y="67.7875"/><path d="M333,67.7875 L333,77.0844 L323,87.0844 L255,87.0844 " fill="none" style="stroke:#181818;stroke-width:1.0;"/><text fill="#000000" font-family="sans-serif" font-size="14" font-weight="bold" lengthAdjust="spacing" textLength="68" x="258" y="81.7826">Services</text></g><!--cluster Integratie--><g id="cluster_Integratie"><rect fill="none" height="96.3" rx="2.5" ry="2.5" style="stroke:#181818;stroke-width:1.0;" width="132" x="102" y="230.4375"/><path d="M188,230.4375 L188,239.7344 L178,249.7344 L102,249.7344 " fill="none" style="stroke:#181818;stroke-width:1.0;"/><text fill="#000000" font-family="sans-serif" font-size="14" font-weight="bold" lengthAdjust="spacing" textLength="76" x="105" y="244.4326">Integratie</text></g><!--cluster API--><g id="cluster_API"><rect fill="none" height="97.3" rx="2.5" ry="2.5" style="stroke:#181818;stroke-width:1.0;" width="132" x="303" y="229.9375"/><path d="M338,229.9375 L338,239.2344 L328,249.2344 L303,249.2344 " fill="none" style="stroke:#181818;stroke-width:1.0;"/><text fill="#000000" font-family="sans-serif" font-size="14" font-weight="bold" lengthAdjust="spacing" textLength="25" x="306" y="243.9326">API</text></g><!--entity Searchsite--><g id="elem_Searchsite"><ellipse cx="106" cy="120.9375" fill="#1ABC9C" rx="8" ry="8" style="stroke:#181818;stroke-width:0.5;"/><text fill="#000000" font-family="sans-serif" font-size="14" lengthAdjust="spacing" textLength="58" x="77" y="150.9326">Afnemer</text></g><!--entity OWS--><g id="elem_OWS"><polygon fill="#1ABC9C" points="271.5,102.7875,424.5,102.7875,434.5,120.9359,424.5,139.0844,271.5,139.0844,281.5,120.9359" style="stroke:#181818;stroke-width:0.5;"/><text fill="#000000" font-family="sans-serif" font-size="14" lengthAdjust="spacing" textLength="123" x="291.5" y="125.7826">OpenWoo Service</text></g><!--entity OI--><g id="elem_OI"><path d="M118.5,275.4375 C118.5,265.4375 168,265.4375 168,265.4375 C168,265.4375 217.5,265.4375 217.5,275.4375 L217.5,300.7344 C217.5,310.7344 168,310.7344 168,310.7344 C168,310.7344 118.5,310.7344 118.5,300.7344 L118.5,275.4375 " fill="#1ABC9C" style="stroke:#181818;stroke-width:0.5;"/><path d="M118.5,275.4375 C118.5,285.4375 168,285.4375 168,285.4375 C168,285.4375 217.5,285.4375 217.5,275.4375 " fill="none" style="stroke:#181818;stroke-width:0.5;"/><text fill="#000000" font-family="sans-serif" font-size="14" lengthAdjust="spacing" textLength="79" x="128.5" y="302.4326">Open Index</text></g><!--entity Bronnen--><g id="elem_Bronnen"><rect fill="#CCE5FF" height="46.2969" rx="2.5" ry="2.5" style="stroke:#181818;stroke-width:0.5;" width="100" x="319" y="264.9375"/><rect fill="#CCE5FF" height="10" style="stroke:#181818;stroke-width:0.5;" width="15" x="399" y="269.9375"/><rect fill="#CCE5FF" height="2" style="stroke:#181818;stroke-width:0.5;" width="4" x="397" y="271.9375"/><rect fill="#CCE5FF" height="2" style="stroke:#181818;stroke-width:0.5;" width="4" x="397" y="275.9375"/><text fill="#000000" font-family="sans-serif" font-size="14" lengthAdjust="spacing" textLength="60" x="334" y="297.9326">Bronnen</text></g><!--link Searchsite to OI--><g id="link_Searchsite_OI"><path d="M103.75,129.9075 C99.54,146.2875 91.87,184.6575 103,213.9375 C110.61,233.9475 122.0749,247.903 136.2249,261.053 " fill="none" id="Searchsite-to-OI" style="stroke:#181818;stroke-width:1.0;"/><polygon fill="#181818" points="140.62,265.1375,136.7503,256.0807,136.9574,261.7338,131.3044,261.9408,140.62,265.1375" style="stroke:#181818;stroke-width:1.0;"/><text fill="#000000" font-family="sans-serif" font-size="13" lengthAdjust="spacing" textLength="95" x="104" y="202.5044">Bevraagd (API)</text></g><!--link OWS to OI--><g id="link_OWS_OI"><path d="M326.68,139.5475 C310.18,150.9875 288.74,166.5775 271,181.9375 C240.09,208.7075 211.6173,238.649 191.5873,260.669 " fill="none" id="OWS-to-OI" style="stroke:#181818;stroke-width:1.0;stroke-dasharray:7.0,7.0;"/><polygon fill="#181818" points="187.55,265.1075,196.565,261.1414,190.9145,261.4088,190.647,255.7583,187.55,265.1075" style="stroke:#181818;stroke-width:1.0;"/><text fill="#000000" font-family="sans-serif" font-size="13" lengthAdjust="spacing" textLength="68" x="272" y="202.5044">Slaat op in</text></g><!--link OWS to Bronnen--><g id="link_OWS_Bronnen"><path d="M351.89,139.5175 C351.19,151.4775 350.36,167.6575 350,181.9375 C349.64,196.1575 348.2,199.8375 350,213.9375 C352.21,231.2475 355.5108,244.5751 359.8508,258.9051 " fill="none" id="OWS-to-Bronnen" style="stroke:#181818;stroke-width:1.0;"/><polygon fill="#181818" points="361.59,264.6475,362.8095,254.8744,360.1407,259.8622,355.153,257.1933,361.59,264.6475" style="stroke:#181818;stroke-width:1.0;"/><text fill="#000000" font-family="sans-serif" font-size="13" lengthAdjust="spacing" textLength="127" x="351" y="195.0044">Scrapes periodically</text><text fill="#000000" font-family="sans-serif" font-size="13" lengthAdjust="spacing" textLength="98" x="365.5" y="210.1372">Uses as source</text></g><!--reverse link OWS to Bronnen--><g id="link_OWS_Bronnen"><path d="M432.6852,141.8291 C454.4152,150.8091 470.21,161.9475 483,181.9375 C505.42,216.9775 459.26,248.0275 419.12,267.1375 " fill="none" id="OWS-backto-Bronnen" style="stroke:#181818;stroke-width:1.0;"/><polygon fill="#181818" points="427.14,139.5375,433.93,146.6716,431.761,141.4471,436.9854,139.2781,427.14,139.5375" style="stroke:#181818;stroke-width:1.0;"/><text fill="#000000" font-family="sans-serif" font-size="13" lengthAdjust="spacing" textLength="190" x="489" y="202.5044">Notifies of changes or deletes</text></g><text fill="#888888" font-family="sans-serif" font-size="10" lengthAdjust="spacing" textLength="68" x="302.5" y="341.5197">OpenWoo.app</text><!--SRC=[RP5FJm8n4CNl_HIJvI0U8F4F1pcOm8r4XRWXNBpCTgTiuz9fse8QutTt5YYASK_TcJU_zpfDDhK4ZvmuL2s_AiESA8nXxicjc8VelMe8wxyrTG6BRTLQZSaI-1QJuR0X1_q7n3MCO3cxL2RWXg3uNrZ0fmBvh1D3Wrg44-DeGw40Z50I1jr4cmXwLrZfEws-EjUImivgYWUVsvD9hcUi3on_4OfZwZnOG4UVhyfpx4nIhCC-uu5ySoB_j3AxneGLHZh0PRQczoDtTewT1dRkj9Nh4tEoc6MOverdqIGeZkhz_VCazBIcaJ47tZF90Ysxs5WVrQyT3Mf-SuFxBi0OfhGBubT3NtmkLNVPuR3hZQ5i4HEmbxMhVICFPZ-Hw82U8dWAbcjvkBRzU77BA2N95NaRD7LPdZXPitzNoQFo_63hknX27XyLCiS6T8DktHq3rDHIelWD]--></g></svg>