<?xml version="1.0" encoding="us-ascii" standalone="no"?><svg xmlns="http://www.w3.org/2000/svg" xmlns:xlink="http://www.w3.org/1999/xlink" contentStyleType="text/css" height="625px" preserveAspectRatio="none" style="width:1450px;height:625px;background:#FFFFFF;" version="1.1" viewBox="0 0 1450 625" width="1450px" zoomAndPan="magnify"><defs/><g><text fill="#888888" font-family="sans-serif" font-size="10" lengthAdjust="spacing" textLength="68" x="1368" y="9.2822">OpenWoo.app</text><text fill="#000000" font-family="sans-serif" font-size="14" font-weight="bold" lengthAdjust="spacing" textLength="391" x="522.5" y="35.6357">Algemene Architectuur en keuze mogenlijkheden</text><!--cluster Publicatie platformen --><g id="cluster_Publicatie platformen "><rect fill="none" height="127.3" rx="2.5" ry="2.5" style="stroke:#181818;stroke-width:1.0;" width="701" x="743" y="56.9375"/><path d="M925,56.9375 L925,66.2344 L915,76.2344 L743,76.2344 " fill="none" style="stroke:#181818;stroke-width:1.0;"/><text fill="#000000" font-family="sans-serif" font-size="14" font-weight="bold" lengthAdjust="spacing" textLength="167" x="746" y="70.9326">Publicatie platformen</text></g><!--cluster Services--><g id="cluster_Services"><rect fill="none" height="87.3" rx="2.5" ry="2.5" style="stroke:#181818;stroke-width:1.0;" width="218" x="1195" y="238.2375"/><path d="M1273,238.2375 L1273,247.5344 L1263,257.5344 L1195,257.5344 " fill="none" style="stroke:#181818;stroke-width:1.0;"/><text fill="#000000" font-family="sans-serif" font-size="14" font-weight="bold" lengthAdjust="spacing" textLength="68" x="1198" y="252.2326">Services</text></g><!--cluster Integratie--><g id="cluster_Integratie"><rect fill="none" height="222.59" rx="2.5" ry="2.5" style="stroke:#181818;stroke-width:1.0;" width="426" x="686" y="233.2375"/><path d="M772,233.2375 L772,242.5344 L762,252.5344 L686,252.5344 " fill="none" style="stroke:#181818;stroke-width:1.0;"/><text fill="#000000" font-family="sans-serif" font-size="14" font-weight="bold" lengthAdjust="spacing" textLength="76" x="689" y="247.2326">Integratie</text></g><!--cluster API--><g id="cluster_API"><rect fill="none" height="96.3" rx="2.5" ry="2.5" style="stroke:#181818;stroke-width:1.0;" width="1306" x="7" y="504.8275"/><path d="M42,504.8275 L42,514.1244 L32,524.1244 L7,524.1244 " fill="none" style="stroke:#181818;stroke-width:1.0;"/><text fill="#000000" font-family="sans-serif" font-size="14" font-weight="bold" lengthAdjust="spacing" textLength="25" x="10" y="518.8226">API</text></g><!--cluster Legenda--><g id="cluster_Legenda"><rect fill="none" height="258.6" rx="2.5" ry="2.5" style="stroke:#181818;stroke-width:1.0;" width="439" x="49" y="71.9375"/><path d="M127,71.9375 L127,81.2344 L117,91.2344 L49,91.2344 " fill="none" style="stroke:#181818;stroke-width:1.0;"/><text fill="#000000" font-family="sans-serif" font-size="14" font-weight="bold" lengthAdjust="spacing" textLength="68" x="52" y="85.9326">Legenda</text></g><!--entity OiDashboard--><g id="elem_OiDashboard"><ellipse cx="1365" cy="130.0875" fill="#E5352C" rx="8" ry="8" style="stroke:#181818;stroke-width:0.5;"/><text fill="#000000" font-family="sans-serif" font-size="14" lengthAdjust="spacing" textLength="111" x="1309.5" y="160.0826">Woo Dashboard</text></g><!--entity KOOP--><g id="elem_KOOP"><ellipse cx="779" cy="100.4375" fill="#008B6C" rx="8" ry="8" style="stroke:#181818;stroke-width:0.5;"/><path d="M779,108.4375 L779,135.4375 M766,116.4375 L792,116.4375 M779,135.4375 L766,150.4375 M779,135.4375 L792,150.4375 " fill="none" style="stroke:#181818;stroke-width:0.5;"/><text fill="#000000" font-family="sans-serif" font-size="14" lengthAdjust="spacing" textLength="40" x="759" y="164.9326">KOOP</text></g><!--entity WOOGLE--><g id="elem_WOOGLE"><ellipse cx="865" cy="100.4375" fill="#008B6C" rx="8" ry="8" style="stroke:#181818;stroke-width:0.5;"/><path d="M865,108.4375 L865,135.4375 M852,116.4375 L878,116.4375 M865,135.4375 L852,150.4375 M865,135.4375 L878,150.4375 " fill="none" style="stroke:#181818;stroke-width:0.5;"/><text fill="#000000" font-family="sans-serif" font-size="14" lengthAdjust="spacing" textLength="62" x="834" y="164.9326">WOOGLE</text></g><!--entity Website--><g id="elem_Website"><ellipse cx="967" cy="130.0875" fill="#F16E06" rx="8" ry="8" style="stroke:#181818;stroke-width:0.5;"/><text fill="#000000" font-family="sans-serif" font-size="14" lengthAdjust="spacing" textLength="56" x="939" y="160.0826">Website</text></g><!--entity Themasite--><g id="elem_Themasite"><ellipse cx="1084" cy="130.0875" fill="#F16E06" rx="8" ry="8" style="stroke:#181818;stroke-width:0.5;"/><text fill="#000000" font-family="sans-serif" font-size="14" lengthAdjust="spacing" textLength="77" x="1045.5" y="160.0826">Thema site</text></g><!--entity Searchsite--><g id="elem_Searchsite"><ellipse cx="1216" cy="130.0875" fill="#F16E06" rx="8" ry="8" style="stroke:#181818;stroke-width:0.5;"/><text fill="#000000" font-family="sans-serif" font-size="14" lengthAdjust="spacing" textLength="86" x="1173" y="160.0826">Zoek pagina</text></g><!--entity OiBF--><g id="elem_OiBF"><polygon fill="#E5352C" points="1211,273.2375,1387,273.2375,1397,291.3859,1387,309.5344,1211,309.5344,1221,291.3859" style="stroke:#181818;stroke-width:0.5;"/><text fill="#000000" font-family="sans-serif" font-size="14" lengthAdjust="spacing" textLength="146" x="1231" y="296.2326">Backend for frontend</text></g><!--entity OI--><g id="elem_OI"><path d="M969.5,404.0375 C969.5,394.0375 1019,394.0375 1019,394.0375 C1019,394.0375 1068.5,394.0375 1068.5,404.0375 L1068.5,429.3344 C1068.5,439.3344 1019,439.3344 1019,439.3344 C1019,439.3344 969.5,439.3344 969.5,429.3344 L969.5,404.0375 " fill="#F16E06" style="stroke:#181818;stroke-width:0.5;"/><path d="M969.5,404.0375 C969.5,414.0375 1019,414.0375 1019,414.0375 C1019,414.0375 1068.5,414.0375 1068.5,404.0375 " fill="none" style="stroke:#181818;stroke-width:0.5;"/><text fill="#000000" font-family="sans-serif" font-size="14" lengthAdjust="spacing" textLength="79" x="979.5" y="431.0326">Open Index</text></g><!--entity FCS--><g id="elem_FCS"><rect fill="#008B6C" height="46.2969" rx="2.5" ry="2.5" style="stroke:#181818;stroke-width:0.5;" width="196" x="900" y="268.2375"/><rect fill="#008B6C" height="10" style="stroke:#181818;stroke-width:0.5;" width="15" x="1076" y="273.2375"/><rect fill="#008B6C" height="2" style="stroke:#181818;stroke-width:0.5;" width="4" x="1074" y="275.2375"/><rect fill="#008B6C" height="2" style="stroke:#181818;stroke-width:0.5;" width="4" x="1074" y="279.2375"/><text fill="#000000" font-family="sans-serif" font-size="14" lengthAdjust="spacing" textLength="156" x="915" y="301.2326">Federatieve Connectie</text></g><!--entity OWS--><g id="elem_OWS"><polygon fill="#F16E06" points="702.5,273.2375,855.5,273.2375,865.5,291.3859,855.5,309.5344,702.5,309.5344,712.5,291.3859" style="stroke:#181818;stroke-width:0.5;"/><text fill="#000000" font-family="sans-serif" font-size="14" lengthAdjust="spacing" textLength="123" x="722.5" y="296.2326">OpenWoo Service</text></g><!--entity IP--><g id="elem_IP"><rect fill="#008B6C" height="46.2969" rx="2.5" ry="2.5" style="stroke:#181818;stroke-width:0.5;" width="165" x="702.5" y="393.5375"/><rect fill="#008B6C" height="10" style="stroke:#181818;stroke-width:0.5;" width="15" x="847.5" y="398.5375"/><rect fill="#008B6C" height="2" style="stroke:#181818;stroke-width:0.5;" width="4" x="845.5" y="400.5375"/><rect fill="#008B6C" height="2" style="stroke:#181818;stroke-width:0.5;" width="4" x="845.5" y="404.5375"/><text fill="#000000" font-family="sans-serif" font-size="14" lengthAdjust="spacing" textLength="125" x="717.5" y="426.5326">Integratie Platform</text></g><!--entity ZRC--><g id="elem_ZRC"><path d="M23.5,549.8275 C23.5,539.8275 109,539.8275 109,539.8275 C109,539.8275 194.5,539.8275 194.5,549.8275 L194.5,575.1244 C194.5,585.1244 109,585.1244 109,585.1244 C109,585.1244 23.5,585.1244 23.5,575.1244 L23.5,549.8275 " fill="#008B6C" style="stroke:#181818;stroke-width:0.5;"/><path d="M23.5,549.8275 C23.5,559.8275 109,559.8275 109,559.8275 C109,559.8275 194.5,559.8275 194.5,549.8275 " fill="none" style="stroke:#181818;stroke-width:0.5;"/><text fill="#000000" font-family="sans-serif" font-size="14" lengthAdjust="spacing" textLength="151" x="33.5" y="576.8226">Zaaksysteem (XXllNC)</text></g><!--entity RIS--><g id="elem_RIS"><path d="M229.5,549.8275 C229.5,539.8275 358,539.8275 358,539.8275 C358,539.8275 486.5,539.8275 486.5,549.8275 L486.5,575.1244 C486.5,585.1244 358,585.1244 358,585.1244 C358,585.1244 229.5,585.1244 229.5,575.1244 L229.5,549.8275 " fill="#008B6C" style="stroke:#181818;stroke-width:0.5;"/><path d="M229.5,549.8275 C229.5,559.8275 358,559.8275 358,559.8275 C358,559.8275 486.5,559.8275 486.5,549.8275 " fill="none" style="stroke:#181818;stroke-width:0.5;"/><text fill="#000000" font-family="sans-serif" font-size="14" lengthAdjust="spacing" textLength="237" x="239.5" y="576.8226">Raadsinformatiesysteem (Notubiz)</text></g><!--entity BIS--><g id="elem_BIS"><path d="M521,549.8275 C521,539.8275 652,539.8275 652,539.8275 C652,539.8275 783,539.8275 783,549.8275 L783,575.1244 C783,585.1244 652,585.1244 652,585.1244 C652,585.1244 521,585.1244 521,575.1244 L521,549.8275 " fill="#008B6C" style="stroke:#181818;stroke-width:0.5;"/><path d="M521,549.8275 C521,559.8275 652,559.8275 652,559.8275 C652,559.8275 783,559.8275 783,549.8275 " fill="none" style="stroke:#181818;stroke-width:0.5;"/><text fill="#000000" font-family="sans-serif" font-size="14" lengthAdjust="spacing" textLength="242" x="531" y="576.8226">Bestuursinformatiesysteem (iBabs)</text></g><!--entity CMS--><g id="elem_CMS"><path d="M817.5,549.8275 C817.5,539.8275 884,539.8275 884,539.8275 C884,539.8275 950.5,539.8275 950.5,549.8275 L950.5,575.1244 C950.5,585.1244 884,585.1244 884,585.1244 C884,585.1244 817.5,585.1244 817.5,575.1244 L817.5,549.8275 " fill="#008B6C" style="stroke:#181818;stroke-width:0.5;"/><path d="M817.5,549.8275 C817.5,559.8275 884,559.8275 884,559.8275 C884,559.8275 950.5,559.8275 950.5,549.8275 " fill="none" style="stroke:#181818;stroke-width:0.5;"/><text fill="#000000" font-family="sans-serif" font-size="14" lengthAdjust="spacing" textLength="113" x="827.5" y="576.8226">Website (Typo3)</text></g><!--entity SP--><g id="elem_SP"><path d="M985.5,549.8275 C985.5,539.8275 1056,539.8275 1056,539.8275 C1056,539.8275 1126.5,539.8275 1126.5,549.8275 L1126.5,575.1244 C1126.5,585.1244 1056,585.1244 1056,585.1244 C1056,585.1244 985.5,585.1244 985.5,575.1244 L985.5,549.8275 " fill="#008B6C" style="stroke:#181818;stroke-width:0.5;"/><path d="M985.5,549.8275 C985.5,559.8275 1056,559.8275 1056,559.8275 C1056,559.8275 1126.5,559.8275 1126.5,549.8275 " fill="none" style="stroke:#181818;stroke-width:0.5;"/><text fill="#000000" font-family="sans-serif" font-size="14" lengthAdjust="spacing" textLength="121" x="995.5" y="576.8226">DMS (Sharepoint)</text></g><!--entity DEPOT--><g id="elem_DEPOT"><path d="M1161.5,549.8275 C1161.5,539.8275 1229,539.8275 1229,539.8275 C1229,539.8275 1296.5,539.8275 1296.5,549.8275 L1296.5,575.1244 C1296.5,585.1244 1229,585.1244 1229,585.1244 C1229,585.1244 1161.5,585.1244 1161.5,575.1244 L1161.5,549.8275 " fill="#008B6C" style="stroke:#181818;stroke-width:0.5;"/><path d="M1161.5,549.8275 C1161.5,559.8275 1229,559.8275 1229,559.8275 C1229,559.8275 1296.5,559.8275 1296.5,549.8275 " fill="none" style="stroke:#181818;stroke-width:0.5;"/><text fill="#000000" font-family="sans-serif" font-size="14" lengthAdjust="spacing" textLength="115" x="1171.5" y="576.8226">Archief (DeVault)</text></g><!--entity Herbruikbaar--><g id="elem_Herbruikbaar"><rect fill="#008B6C" height="46.2969" rx="2.5" ry="2.5" style="stroke:#181818;stroke-width:0.5;" width="128" x="65" y="106.9375"/><rect fill="#008B6C" height="10" style="stroke:#181818;stroke-width:0.5;" width="15" x="173" y="111.9375"/><rect fill="#008B6C" height="2" style="stroke:#181818;stroke-width:0.5;" width="4" x="171" y="113.9375"/><rect fill="#008B6C" height="2" style="stroke:#181818;stroke-width:0.5;" width="4" x="171" y="117.9375"/><text fill="#000000" font-family="sans-serif" font-size="14" lengthAdjust="spacing" textLength="88" x="80" y="139.9326">Herbruikbaar</text></g><!--entity Uitbreiden (doorontwikkeling)--><g id="elem_Uitbreiden (doorontwikkeling)"><rect fill="#F16E06" height="46.2969" rx="2.5" ry="2.5" style="stroke:#181818;stroke-width:0.5;" width="243" x="228.5" y="106.9375"/><rect fill="#F16E06" height="10" style="stroke:#181818;stroke-width:0.5;" width="15" x="451.5" y="111.9375"/><rect fill="#F16E06" height="2" style="stroke:#181818;stroke-width:0.5;" width="4" x="449.5" y="113.9375"/><rect fill="#F16E06" height="2" style="stroke:#181818;stroke-width:0.5;" width="4" x="449.5" y="117.9375"/><text fill="#000000" font-family="sans-serif" font-size="14" lengthAdjust="spacing" textLength="203" x="243.5" y="139.9326">Uitbreiden (doorontwikkeling)</text></g><!--entity Te ontwikkelen (nieuw)--><g id="elem_Te ontwikkelen (nieuw)"><rect fill="#E5352C" height="46.2969" rx="2.5" ry="2.5" style="stroke:#181818;stroke-width:0.5;" width="200" x="65" y="268.2375"/><rect fill="#E5352C" height="10" style="stroke:#181818;stroke-width:0.5;" width="15" x="245" y="273.2375"/><rect fill="#E5352C" height="2" style="stroke:#181818;stroke-width:0.5;" width="4" x="243" y="275.2375"/><rect fill="#E5352C" height="2" style="stroke:#181818;stroke-width:0.5;" width="4" x="243" y="279.2375"/><text fill="#000000" font-family="sans-serif" font-size="14" lengthAdjust="spacing" textLength="160" x="80" y="301.2326">Te ontwikkelen (nieuw)</text></g><!--link OiDashboard to OiBF--><g id="link_OiDashboard_OiBF"><path d="M1363.52,138.8775 C1360.47,154.1975 1352.86,189.2375 1342,217.2375 C1334.34,236.9875 1325.8326,253.1471 1317.4826,267.6571 " fill="none" id="OiDashboard-to-OiBF" style="stroke:#181818;stroke-width:1.0;"/><polygon fill="#181818" points="1314.49,272.8575,1322.4459,267.052,1316.9839,268.5238,1315.512,263.0618,1314.49,272.8575" style="stroke:#181818;stroke-width:1.0;"/></g><!--link OWS to IP--><g id="link_OWS_IP"><path d="M782.47,309.9275 C781.41,324.3275 780.3,345.2475 781,363.5375 C781.37,373.2375 781.6344,377.968 782.3944,387.138 " fill="none" id="OWS-to-IP" style="stroke:#181818;stroke-width:1.0;"/><polygon fill="#181818" points="782.89,393.1175,786.133,383.8179,782.477,388.1346,778.1603,384.4786,782.89,393.1175" style="stroke:#181818;stroke-width:1.0;"/><text fill="#000000" font-family="sans-serif" font-size="13" lengthAdjust="spacing" textLength="83" x="782" y="359.6044">Bevraagd via</text></g><!--link IP to ZRC--><g id="link_IP_ZRC"><path d="M702.22,418.2975 C588.42,421.5375 378.81,436.1575 212,496.8275 C184.42,506.8675 161.2687,521.5096 141.4387,536.0496 " fill="none" id="IP-to-ZRC" style="stroke:#181818;stroke-width:1.0;"/><polygon fill="#181818" points="136.6,539.5975,146.2232,537.5015,140.6322,536.6409,141.4928,531.0499,136.6,539.5975" style="stroke:#181818;stroke-width:1.0;"/><text fill="#000000" font-family="sans-serif" font-size="13" lengthAdjust="spacing" textLength="97" x="288" y="484.8944">Woo verzoeken</text></g><!--link IP to SP--><g id="link_IP_SP"><path d="M866.54,440.2275 C893.72,447.7375 924.16,456.1475 952,463.8275 C964.89,467.3875 969.76,464.5975 981,471.8275 C1007.79,489.0675 1026.6934,513.8253 1039.8134,534.3053 " fill="none" id="IP-to-SP" style="stroke:#181818;stroke-width:1.0;"/><polygon fill="#181818" points="1043.05,539.3575,1041.5633,529.6215,1040.3529,535.1473,1034.827,533.9369,1043.05,539.3575" style="stroke:#181818;stroke-width:1.0;"/><text fill="#000000" font-family="sans-serif" font-size="13" lengthAdjust="spacing" textLength="85" x="1001" y="484.8944">Convenanten</text></g><!--link IP to RIS--><g id="link_IP_RIS"><path d="M702.25,437.5175 C645.51,451.9375 568.88,473.0375 503,496.8275 C468.78,509.1875 436.7236,523.4215 408.4436,536.8015 " fill="none" id="IP-to-RIS" style="stroke:#181818;stroke-width:1.0;"/><polygon fill="#181818" points="403.02,539.3675,412.8661,539.1342,407.5397,537.2291,409.4447,531.9027,403.02,539.3675" style="stroke:#181818;stroke-width:1.0;"/><text fill="#000000" font-family="sans-serif" font-size="13" lengthAdjust="spacing" textLength="89" x="573" y="484.8944">Raadsstukken</text></g><!--link IP to BIS--><g id="link_IP_BIS"><path d="M745.05,440.2875 C731.67,449.0375 717.29,459.8575 706,471.8275 C686.93,492.0575 674.0052,514.7371 664.5652,534.0471 " fill="none" id="IP-to-BIS" style="stroke:#181818;stroke-width:1.0;"/><polygon fill="#181818" points="661.93,539.4375,669.4763,533.1087,664.126,534.9455,662.2892,529.5952,661.93,539.4375" style="stroke:#181818;stroke-width:1.0;"/><text fill="#000000" font-family="sans-serif" font-size="13" lengthAdjust="spacing" textLength="107" x="707" y="484.8944">Bestuursstukken</text></g><!--link IP to CMS--><g id="link_IP_CMS"><path d="M800.47,440.1475 C819.18,467.3275 847.0479,507.8052 865.5579,534.6952 " fill="none" id="IP-to-CMS" style="stroke:#181818;stroke-width:1.0;"/><polygon fill="#181818" points="868.96,539.6375,867.1518,529.9561,866.125,535.5189,860.5621,534.4921,868.96,539.6375" style="stroke:#181818;stroke-width:1.0;"/><text fill="#000000" font-family="sans-serif" font-size="13" lengthAdjust="spacing" textLength="139" x="833" y="484.8944">Organisatie gegevens</text></g><!--link IP to DEPOT--><g id="link_IP_DEPOT"><path d="M853.73,440.2375 C883.6,449.1075 919.2,458.4475 952,463.8275 C1014.81,474.1475 1033.55,455.2275 1095,471.8275 C1118.6,478.2075 1123.3,483.8275 1144,496.8275 C1164.56,509.7575 1181.6648,522.6168 1198.0248,535.7768 " fill="none" id="IP-to-DEPOT" style="stroke:#181818;stroke-width:1.0;"/><polygon fill="#181818" points="1202.7,539.5375,1198.1944,530.7797,1198.804,536.4036,1193.1801,537.0132,1202.7,539.5375" style="stroke:#181818;stroke-width:1.0;"/><text fill="#000000" font-family="sans-serif" font-size="13" lengthAdjust="spacing" textLength="159" x="1132" y="484.8944">Gearchiveerde gegevens</text></g><!--link OWS to OI--><g id="link_OWS_OI"><path d="M817.17,309.7875 C859.05,331.7575 925.8172,366.7892 971.5472,390.7892 " fill="none" id="OWS-to-OI" style="stroke:#181818;stroke-width:1.0;stroke-dasharray:7.0,7.0;"/><polygon fill="#181818" points="976.86,393.5775,970.7497,385.8533,972.4327,391.254,967.032,392.937,976.86,393.5775" style="stroke:#181818;stroke-width:1.0;"/><text fill="#000000" font-family="sans-serif" font-size="13" lengthAdjust="spacing" textLength="68" x="916" y="359.6044">Slaat op in</text></g><!--link OiBF to OI--><g id="link_OiBF_OI"><path d="M1263.47,309.9175 C1212.29,332.0575 1129.7767,367.7551 1074.4867,391.6751 " fill="none" id="OiBF-to-OI" style="stroke:#181818;stroke-width:1.0;"/><polygon fill="#181818" points="1068.98,394.0575,1078.8284,394.1551,1073.569,392.0722,1075.6519,386.8128,1068.98,394.0575" style="stroke:#181818;stroke-width:1.0;"/><text fill="#000000" font-family="sans-serif" font-size="13" lengthAdjust="spacing" textLength="54" x="1179" y="359.6044">Beheerd</text></g><!--link FCS to OI--><g id="link_FCS_OI"><path d="M1001.85,314.9975 C1005.66,337.3875 1010.4524,365.5227 1014.2324,387.7127 " fill="none" id="FCS-to-OI" style="stroke:#181818;stroke-width:1.0;"/><polygon fill="#181818" points="1015.24,393.6275,1017.6718,384.0836,1014.4004,388.6985,1009.7855,385.427,1015.24,393.6275" style="stroke:#181818;stroke-width:1.0;"/><text fill="#000000" font-family="sans-serif" font-size="13" lengthAdjust="spacing" textLength="61" x="1010" y="359.6044">Bevraagd</text></g><!--link KOOP to FCS--><g id="link_KOOP_FCS"><path d="M758.76,137.9875 C720.86,151.8975 645.75,184.7475 677,217.2375 C684.94,225.4875 871.98,222.1075 883,225.2375 C913.9,234.0275 940.4389,249.313 962.6389,264.413 " fill="none" id="KOOP-to-FCS" style="stroke:#181818;stroke-width:1.0;"/><polygon fill="#181818" points="967.6,267.7875,962.4079,259.4184,963.4657,264.9754,957.9086,266.0332,967.6,267.7875" style="stroke:#181818;stroke-width:1.0;"/><text fill="#000000" font-family="sans-serif" font-size="13" lengthAdjust="spacing" textLength="161" x="678" y="213.3044">Indexeerd (XML Sitemap)</text></g><!--link WOOGLE to FCS--><g id="link_WOOGLE_FCS"><path d="M849.64,168.5575 C845.52,184.9475 844.66,203.5375 855,217.2375 C862.79,227.5675 871.06,220.2375 883,225.2375 C911.15,237.0375 935.9827,251.0087 958.2527,264.7387 " fill="none" id="WOOGLE-to-FCS" style="stroke:#181818;stroke-width:1.0;"/><polygon fill="#181818" points="963.36,267.8875,957.7982,259.7594,959.1039,265.2635,953.5998,266.5692,963.36,267.8875" style="stroke:#181818;stroke-width:1.0;"/><text fill="#000000" font-family="sans-serif" font-size="13" lengthAdjust="spacing" textLength="97" x="856" y="213.3044">Indexeerd (API)</text></g><!--link Website to FCS--><g id="link_Website_FCS"><path d="M965.63,138.8075 C963.19,154.0175 958.9,188.8675 965,217.2375 C968.84,235.0775 974.5806,248.5159 982.0206,262.5559 " fill="none" id="Website-to-FCS" style="stroke:#181818;stroke-width:1.0;"/><polygon fill="#181818" points="984.83,267.8575,984.1503,258.0321,982.4888,263.4395,977.0815,261.778,984.83,267.8575" style="stroke:#181818;stroke-width:1.0;"/><text fill="#000000" font-family="sans-serif" font-size="13" lengthAdjust="spacing" textLength="95" x="966" y="213.3044">Bevraagd (API)</text></g><!--link Themasite to FCS--><g id="link_Themasite_FCS"><path d="M1083.77,138.6875 C1083,154.2675 1079.76,190.6375 1066,217.2375 C1055.96,236.6375 1043.7235,250.5813 1029.4235,263.8813 " fill="none" id="Themasite-to-FCS" style="stroke:#181818;stroke-width:1.0;"/><polygon fill="#181818" points="1025.03,267.9675,1034.3444,264.7671,1028.6912,264.5623,1028.8961,258.9092,1025.03,267.9675" style="stroke:#181818;stroke-width:1.0;"/><text fill="#000000" font-family="sans-serif" font-size="13" lengthAdjust="spacing" textLength="95" x="1073" y="213.3044">Bevraagd (API)</text></g><!--link Searchsite to FCS--><g id="link_Searchsite_FCS"><path d="M1214.51,138.8775 C1210.94,155.4775 1200.41,194.6775 1177,217.2375 C1152.95,240.4175 1126.1873,254.5729 1095.5673,265.7329 " fill="none" id="Searchsite-to-FCS" style="stroke:#181818;stroke-width:1.0;"/><polygon fill="#181818" points="1089.93,267.7875,1099.7556,268.4638,1094.6277,266.0753,1097.0161,260.9474,1089.93,267.7875" style="stroke:#181818;stroke-width:1.0;"/><text fill="#000000" font-family="sans-serif" font-size="13" lengthAdjust="spacing" textLength="95" x="1190" y="213.3044">Bevraagd (API)</text></g><text fill="#888888" font-family="sans-serif" font-size="10" lengthAdjust="spacing" textLength="68" x="684" y="615.4097">OpenWoo.app</text><!--SRC=[VLHDKzj03BtxLsZCeU40Gw4mdHmwWnD2FGquWqDXkCcsucpjx7hMJYXq-j-hNN_4eGIVTgttf9Nqf4fKES5bdjAA91zql1GLnTLwhO4aPBH-9LYfb6GkVcLBIaWw2wKgqaC82f8FIXrZKJXBmkJjFyVv1BDrb8iOAq5Gv5WjbEOuC9WYfd0Ez_wXiz2u8d3V1xhmnm7-XEI82umPoDvXZEKoKgWJ5ov324HtXmCwFpi_ZIq9uqffS7y4mSpbMmdc10Sd9r-ZYr4F0Umq2AwdLwu1rSSTM3ywHIKNoCPjpd0m-NnnTNBn5ZfVqWgXHhDVU_q8_wGeWm9J8T4IGaBknWxZhobfI7eZOYhh8dxfAjZ-RsjMQCMt4bmFuuna0bnJM6Z54MLI5oGGtgGhcNNkipNLjWsr_xFE_zRKHaYmmWXBjfcsCpUXturZVoVBMAqA9KbMu4vOGjR9Xc2af6Ij6OU6D1c5EsNl4cX4rMRUX7W8zyNe9J5hj5Hp_6txRRQUDYzezNZQfNevy__FyGanAr_AYcW5WyV7FByT7Tf6FTsDTjwzfTmX9gMGvW7cDHtxLbNhIBpMz3i_t4Ftg3I3-9u7uM5KrdnlBxyLw63-KgYp6ZswsOSUisKGBb5JeLYMDJoSxK7RJK4B68pf9wxp1Zw-cWNpVesRWaw9DqY2RL5xlVfEEj9haKM8sjs9rGFTYohI91BJgaGfe-5daMMK2vbou3qoc1DqGCEKWjRF1ju8dZz-ONzx72NgMHvzitFX684TySMV3S6ZZMQ99B0HwB2AMY2tVWX6cXlIhpo_l1rxrf2PhF4DIJH3rpTnquTWvS4jpjxmF6Dic_-EdNl8crQdA4LfLPvoUJbAsGVPLWpXscuHiI7IIGzeaZi-vapz8OGvOWMgu6Nas8rWiZO6ZvQ6vZXcCkkViAs5uzXzsiOpc66z0mo9H-Hc2Y7BRuN5eTDirRrWdZW6DNhTHNMrhq7RFVeXhBSzFyBz0m00]--></g></svg>