<?xml version="1.0" encoding="us-ascii" standalone="no"?><svg xmlns="http://www.w3.org/2000/svg" xmlns:xlink="http://www.w3.org/1999/xlink" contentStyleType="text/css" height="363px" preserveAspectRatio="none" style="width:691px;height:363px;background:#FFFFFF;" version="1.1" viewBox="0 0 691 363" width="691px" zoomAndPan="magnify"><defs/><g><text fill="#000000" font-family="sans-serif" font-size="14" font-weight="bold" lengthAdjust="spacing" textLength="237" x="220.25" y="22.9951">Losse frontend met integratie</text><!--entity Website--><g id="elem_Website"><ellipse cx="259.5" cy="51.2969" fill="#F1F1F1" rx="8" ry="8" style="stroke:#181818;stroke-width:0.5;"/><text fill="#000000" font-family="sans-serif" font-size="14" lengthAdjust="spacing" textLength="190" x="164.5" y="81.292">Open Webconcept Website</text></g><!--entity Harvester--><g id="elem_Harvester"><ellipse cx="547.5" cy="51.2969" fill="#F1F1F1" rx="8" ry="8" style="stroke:#181818;stroke-width:0.5;"/><text fill="#000000" font-family="sans-serif" font-size="14" lengthAdjust="spacing" textLength="106" x="494.5" y="81.292">Koop Harvester</text></g><!--entity Api--><g id="elem_Api"><ellipse cx="670.5" cy="51.2969" fill="#F1F1F1" rx="8" ry="8" style="stroke:#181818;stroke-width:0.5;"/><text fill="#000000" font-family="sans-serif" font-size="14" lengthAdjust="spacing" textLength="21" x="660" y="81.292">API</text></g><!--entity CMS--><g id="elem_CMS"><rect fill="#F1F1F1" height="46.2969" rx="2.5" ry="2.5" style="stroke:#181818;stroke-width:0.5;" width="205" x="7" y="301.4469"/><rect fill="#F1F1F1" height="10" style="stroke:#181818;stroke-width:0.5;" width="15" x="192" y="306.4469"/><rect fill="#F1F1F1" height="2" style="stroke:#181818;stroke-width:0.5;" width="4" x="190" y="308.4469"/><rect fill="#F1F1F1" height="2" style="stroke:#181818;stroke-width:0.5;" width="4" x="190" y="312.4469"/><text fill="#000000" font-family="sans-serif" font-size="14" lengthAdjust="spacing" textLength="165" x="22" y="334.442">Open Webconcept CMS</text></g><!--entity Integratie--><g id="elem_Integratie"><rect fill="#F1F1F1" height="46.2969" rx="2.5" ry="2.5" style="stroke:#181818;stroke-width:0.5;" width="105" x="289" y="157.2969"/><rect fill="#F1F1F1" height="10" style="stroke:#181818;stroke-width:0.5;" width="15" x="374" y="162.2969"/><rect fill="#F1F1F1" height="2" style="stroke:#181818;stroke-width:0.5;" width="4" x="372" y="164.2969"/><rect fill="#F1F1F1" height="2" style="stroke:#181818;stroke-width:0.5;" width="4" x="372" y="168.2969"/><text fill="#000000" font-family="sans-serif" font-size="14" lengthAdjust="spacing" textLength="65" x="304" y="190.292">Integratie</text></g><!--entity Bronnen--><g id="elem_Bronnen"><rect fill="#F1F1F1" height="46.2969" rx="2.5" ry="2.5" style="stroke:#181818;stroke-width:0.5;" width="100" x="291.5" y="301.4469"/><rect fill="#F1F1F1" height="10" style="stroke:#181818;stroke-width:0.5;" width="15" x="371.5" y="306.4469"/><rect fill="#F1F1F1" height="2" style="stroke:#181818;stroke-width:0.5;" width="4" x="369.5" y="308.4469"/><rect fill="#F1F1F1" height="2" style="stroke:#181818;stroke-width:0.5;" width="4" x="369.5" y="312.4469"/><text fill="#000000" font-family="sans-serif" font-size="14" lengthAdjust="spacing" textLength="60" x="306.5" y="334.442">Bronnen</text></g><!--entity API--><g id="elem_API"><ellipse cx="424.5" cy="51.2969" fill="#F1F1F1" rx="8" ry="8" style="stroke:#181818;stroke-width:0.5;"/><text fill="#000000" font-family="sans-serif" font-size="14" lengthAdjust="spacing" textLength="21" x="414" y="81.292">API</text></g><!--entity Zaaksysteem--><g id="elem_Zaaksysteem"><ellipse cx="510.5" cy="324.5969" fill="#F1F1F1" rx="8" ry="8" style="stroke:#181818;stroke-width:0.5;"/><text fill="#000000" font-family="sans-serif" font-size="14" lengthAdjust="spacing" textLength="93" x="464" y="354.592">Zaaksysteem</text></g><!--link API to Integratie--><g id="link_API_Integratie"><path d="M421.15,60.0669 C414.98,74.0369 401.02,104.1369 385.5,127.2969 C378.64,137.5369 374.0373,143.5295 366.2973,152.4295 " fill="none" id="API-to-Integratie" style="stroke:#181818;stroke-width:1.0;"/><polygon fill="#181818" points="362.36,156.9569,371.2843,152.7906,365.6411,153.184,365.2477,147.5409,362.36,156.9569" style="stroke:#181818;stroke-width:1.0;"/><text fill="#000000" font-family="sans-serif" font-size="13" lengthAdjust="spacing" textLength="119" x="395.5" y="123.3638">Directly connected</text></g><!--link Website to Integratie--><g id="link_Website_Integratie"><path d="M257.38,59.9169 C253.88,74.1769 248.38,105.4269 260.5,127.2969 C267.23,139.4369 273.0933,145.9056 284.7233,153.5356 " fill="none" id="Website-to-Integratie" style="stroke:#181818;stroke-width:1.0;"/><polygon fill="#181818" points="289.74,156.8269,284.4091,148.5455,285.5594,154.0841,280.0207,155.2344,289.74,156.8269" style="stroke:#181818;stroke-width:1.0;"/><text fill="#000000" font-family="sans-serif" font-size="13" lengthAdjust="spacing" textLength="119" x="261.5" y="123.3638">Directly connected</text></g><!--link Integratie to Bronnen--><g id="link_Integratie_Bronnen"><path d="M339.92,204.0269 C339.35,213.1969 338.78,223.8969 338.5,233.5969 C338.09,247.8169 338.13,251.3769 338.5,265.5969 C338.8,277.2869 339.1091,284.3066 339.7191,295.0266 " fill="none" id="Integratie-to-Bronnen" style="stroke:#181818;stroke-width:1.0;"/><polygon fill="#181818" points="340.06,301.0169,343.5422,291.8042,339.7759,296.025,335.5552,292.2587,340.06,301.0169" style="stroke:#181818;stroke-width:1.0;"/><text fill="#000000" font-family="sans-serif" font-size="13" lengthAdjust="spacing" textLength="127" x="339.5" y="246.6638">Scrapes periodically</text><text fill="#000000" font-family="sans-serif" font-size="13" lengthAdjust="spacing" textLength="98" x="354" y="261.7966">Uses as source</text></g><!--reverse link Integratie to CMS--><g id="link_Integratie_CMS"><path d="M282.7104,181.6307 C237.0104,184.3307 178.05,195.0769 137.5,233.5969 C118.99,251.1769 112.64,280.7569 110.51,301.1769 " fill="none" id="Integratie-backto-CMS" style="stroke:#181818;stroke-width:1.0;"/><polygon fill="#181818" points="288.7,181.2769,279.4798,177.8146,283.7087,181.5718,279.9516,185.8007,288.7,181.2769" style="stroke:#181818;stroke-width:1.0;"/><text fill="#000000" font-family="sans-serif" font-size="13" lengthAdjust="spacing" textLength="190" x="138.5" y="254.1638">Notifies of changes or deletes</text></g><!--reverse link Integratie to Zaaksysteem--><g id="link_Integratie_Zaaksysteem"><path d="M399.9784,194.2561 C425.9584,202.0261 450.41,213.0769 471.5,233.5969 C495.79,257.2269 505.88,298.5069 509.17,315.7169 " fill="none" id="Integratie-backto-Zaaksysteem" style="stroke:#181818;stroke-width:1.0;"/><polygon fill="#181818" points="394.23,192.5369,401.7065,198.948,399.0203,193.9696,403.9988,191.2834,394.23,192.5369" style="stroke:#181818;stroke-width:1.0;"/><text fill="#000000" font-family="sans-serif" font-size="13" lengthAdjust="spacing" textLength="190" x="493.5" y="254.1638">Notifies of changes or deletes</text></g><!--SRC=[bP7FJiCm3CRlUGfh5qvz0Gv8spXGyLTC20bn2QcxHKlZACv0VNkSq9O8Bd3A5_ltjL_iP9D3k25cX3wIJ-Wx63215RcFEbbKwWoU62EqKegzDWXR6W9vz4dPfRQw3-ZX6TyCUOCXPSasuGeqpxh6hua2NEduZYorGYstcbi_jAMv3ZOdsMXpp1cN2ApCB7zdsDxkYbdE6ckNnvNkzxM6DZ8EKOMOT0xmY4v8ydomWPMaWwQZ3zzSL9-1SxYq4Kro8vZiD0axDGtXptpLdorJ3k5t9kg0306ZfSuQxTpuwcLFdFCodQ8fcxkZP7jfbyXAvW3DAVpy-HSaLkh17BJVPncXGuS9MRreVUHH5eF3_zsV]--></g></svg>