<?xml version="1.0" encoding="us-ascii" standalone="no"?><svg xmlns="http://www.w3.org/2000/svg" xmlns:xlink="http://www.w3.org/1999/xlink" contentStyleType="text/css" height="335px" preserveAspectRatio="none" style="width:474px;height:335px;background:#FFFFFF;" version="1.1" viewBox="0 0 474 335" width="474px" zoomAndPan="magnify"><defs/><g><text fill="#888888" font-family="sans-serif" font-size="10" lengthAdjust="spacing" textLength="68" x="392" y="9.2822">OpenWoo.app</text><text fill="#000000" font-family="sans-serif" font-size="14" font-weight="bold" lengthAdjust="spacing" textLength="262" x="99" y="35.6357">Open Webconcept met integratie</text><!--cluster Publicatie platformen --><g id="cluster_Publicatie platformen "><rect fill="none" height="109" rx="2.5" ry="2.5" style="stroke:#181818;stroke-width:1.0;" width="238" x="7" y="56.9375"/><path d="M189,56.9375 L189,66.2344 L179,76.2344 L7,76.2344 " fill="none" style="stroke:#181818;stroke-width:1.0;"/><text fill="#000000" font-family="sans-serif" font-size="14" font-weight="bold" lengthAdjust="spacing" textLength="167" x="10" y="70.9326">Publicatie platformen</text></g><!--cluster Services--><g id="cluster_Services"><rect fill="none" height="87.3" rx="2.5" ry="2.5" style="stroke:#181818;stroke-width:1.0;" width="196" x="272" y="67.7875"/><path d="M350,67.7875 L350,77.0844 L340,87.0844 L272,87.0844 " fill="none" style="stroke:#181818;stroke-width:1.0;"/><text fill="#000000" font-family="sans-serif" font-size="14" font-weight="bold" lengthAdjust="spacing" textLength="68" x="275" y="81.7826">Services</text></g><!--cluster Integratie--><g id="cluster_Integratie"><rect fill="none" height="96.3" rx="2.5" ry="2.5" style="stroke:#181818;stroke-width:1.0;" width="132" x="100" y="214.9375"/><path d="M186,214.9375 L186,224.2344 L176,234.2344 L100,234.2344 " fill="none" style="stroke:#181818;stroke-width:1.0;"/><text fill="#000000" font-family="sans-serif" font-size="14" font-weight="bold" lengthAdjust="spacing" textLength="76" x="103" y="228.9326">Integratie</text></g><!--cluster API--><g id="cluster_API"><rect fill="none" height="96.3" rx="2.5" ry="2.5" style="stroke:#181818;stroke-width:1.0;" width="154" x="296" y="214.9375"/><path d="M331,214.9375 L331,224.2344 L321,234.2344 L296,234.2344 " fill="none" style="stroke:#181818;stroke-width:1.0;"/><text fill="#000000" font-family="sans-serif" font-size="14" font-weight="bold" lengthAdjust="spacing" textLength="25" x="299" y="228.9326">API</text></g><!--entity Website--><g id="elem_Website"><ellipse cx="126" cy="120.9375" fill="#CCE5FF" rx="8" ry="8" style="stroke:#181818;stroke-width:0.5;"/><text fill="#000000" font-family="sans-serif" font-size="14" lengthAdjust="spacing" textLength="190" x="31" y="150.9326">Open Webconcept Website</text></g><!--entity OWS--><g id="elem_OWS"><polygon fill="#1ABC9C" points="288.5,102.7875,441.5,102.7875,451.5,120.9359,441.5,139.0844,288.5,139.0844,298.5,120.9359" style="stroke:#181818;stroke-width:0.5;"/><text fill="#000000" font-family="sans-serif" font-size="14" lengthAdjust="spacing" textLength="123" x="308.5" y="125.7826">OpenWoo Service</text></g><!--entity OI--><g id="elem_OI"><path d="M116.5,259.9375 C116.5,249.9375 166,249.9375 166,249.9375 C166,249.9375 215.5,249.9375 215.5,259.9375 L215.5,285.2344 C215.5,295.2344 166,295.2344 166,295.2344 C166,295.2344 116.5,295.2344 116.5,285.2344 L116.5,259.9375 " fill="#1ABC9C" style="stroke:#181818;stroke-width:0.5;"/><path d="M116.5,259.9375 C116.5,269.9375 166,269.9375 166,269.9375 C166,269.9375 215.5,269.9375 215.5,259.9375 " fill="none" style="stroke:#181818;stroke-width:0.5;"/><text fill="#000000" font-family="sans-serif" font-size="14" lengthAdjust="spacing" textLength="79" x="126.5" y="286.9326">Open Index</text></g><!--entity CMS--><g id="elem_CMS"><path d="M312.5,259.9375 C312.5,249.9375 373,249.9375 373,249.9375 C373,249.9375 433.5,249.9375 433.5,259.9375 L433.5,285.2344 C433.5,295.2344 373,295.2344 373,295.2344 C373,295.2344 312.5,295.2344 312.5,285.2344 L312.5,259.9375 " fill="#CCE5FF" style="stroke:#181818;stroke-width:0.5;"/><path d="M312.5,259.9375 C312.5,269.9375 373,269.9375 373,269.9375 C373,269.9375 433.5,269.9375 433.5,259.9375 " fill="none" style="stroke:#181818;stroke-width:0.5;"/><text fill="#000000" font-family="sans-serif" font-size="14" lengthAdjust="spacing" textLength="101" x="322.5" y="286.9326">Website (CMS)</text></g><!--link OWS to CMS--><g id="link_OWS_CMS"><path d="M370.35,139.3975 C370.9,166.7675 371.8397,213.7387 372.4397,243.6487 " fill="none" id="OWS-to-CMS" style="stroke:#181818;stroke-width:1.0;"/><polygon fill="#181818" points="372.56,249.6475,376.3787,240.5691,372.4597,244.6485,368.3803,240.7295,372.56,249.6475" style="stroke:#181818;stroke-width:1.0;"/><text fill="#000000" font-family="sans-serif" font-size="13" lengthAdjust="spacing" textLength="63" x="372" y="195.0044">Indexeerd</text></g><!--link OWS to OI--><g id="link_OWS_OI"><path d="M346.2,139.3975 C308.89,166.7675 241.5278,216.1884 200.7578,246.0984 " fill="none" id="OWS-to-OI" style="stroke:#181818;stroke-width:1.0;stroke-dasharray:7.0,7.0;"/><polygon fill="#181818" points="195.92,249.6475,205.5427,247.549,199.9515,246.6899,200.8106,241.0987,195.92,249.6475" style="stroke:#181818;stroke-width:1.0;"/><text fill="#000000" font-family="sans-serif" font-size="13" lengthAdjust="spacing" textLength="68" x="287" y="195.0044">Slaat op in</text></g><!--link Website to OI--><g id="link_Website_OI"><path d="M124.17,129.7675 C121.19,143.8875 116.29,174.4275 123,198.9375 C128.03,217.3175 135.592,230.8572 145.212,244.5572 " fill="none" id="Website-to-OI" style="stroke:#181818;stroke-width:1.0;"/><polygon fill="#181818" points="148.66,249.4675,146.7616,239.8033,145.7867,245.3756,140.2145,244.4007,148.66,249.4675" style="stroke:#181818;stroke-width:1.0;"/><text fill="#000000" font-family="sans-serif" font-size="13" lengthAdjust="spacing" textLength="95" x="124" y="195.0044">Bevraagd (API)</text></g><text fill="#888888" font-family="sans-serif" font-size="10" lengthAdjust="spacing" textLength="68" x="196" y="325.5197">OpenWoo.app</text><!--SRC=[RP0zJyCm48Pt_ufJEf0EZSH71p9KeaoHGAqKeSmN-rmi9RRbc8A4-E_OIHsWnTFvFfxtlVFATmGxIneQQhdHdAo7dZmexUdWq2jYqXXFhXpR6cCAj9Qz4ehp7Bk2_LlRAHwdm7RefN5zGETFY0TOmqkrPD9XJv3ztvZ19uFmehYJo4FZkRSG3ifJ1ZYa61QSqrfAzXKjrEIEYjCmYTxDYYcVDAmpuJTC2c65D9X1HE-Q6XRNsF9xFc6h-HwdTMvdyayfiGLwR758zYijwEF4hVvYjyveFP_ePcO-xAjBMDetVtokb-C5Gl1x- -Xw9SoxNcrYgPoKYPmOIqMn2GPAg3j43yQ6EpEMe6akE2nXIqSN30d8Wv7bDm00]--></g></svg>