<?xml version="1.0" encoding="us-ascii" standalone="no"?><svg xmlns="http://www.w3.org/2000/svg" xmlns:xlink="http://www.w3.org/1999/xlink" contentStyleType="text/css" height="370px" preserveAspectRatio="none" style="width:1192px;height:370px;background:#FFFFFF;" version="1.1" viewBox="0 0 1192 370" width="1192px" zoomAndPan="magnify"><defs/><g><text fill="#888888" font-family="sans-serif" font-size="10" lengthAdjust="spacing" textLength="68" x="1110.5" y="9.2822">OpenWoo.app</text><text fill="#000000" font-family="sans-serif" font-size="14" font-weight="bold" lengthAdjust="spacing" textLength="167" x="505.75" y="35.6357">Publicatie platformen</text><!--cluster Publicatie platformen --><g id="cluster_Publicatie platformen "><rect fill="none" height="127.29" rx="2.5" ry="2.5" style="stroke:#181818;stroke-width:1.0;" width="540" x="113.5" y="56.9375"/><path d="M295.5,56.9375 L295.5,66.2344 L285.5,76.2344 L113.5,76.2344 " fill="none" style="stroke:#181818;stroke-width:1.0;"/><text fill="#000000" font-family="sans-serif" font-size="14" font-weight="bold" lengthAdjust="spacing" textLength="167" x="116.5" y="70.9326">Publicatie platformen</text></g><!--cluster Services--><g id="cluster_Services"><rect fill="none" height="87.29" rx="2.5" ry="2.5" style="stroke:#181818;stroke-width:1.0;" width="196" x="760.5" y="76.9375"/><path d="M838.5,76.9375 L838.5,86.2344 L828.5,96.2344 L760.5,96.2344 " fill="none" style="stroke:#181818;stroke-width:1.0;"/><text fill="#000000" font-family="sans-serif" font-size="14" font-weight="bold" lengthAdjust="spacing" textLength="68" x="763.5" y="90.9326">Services</text></g><!--cluster Integratie--><g id="cluster_Integratie"><rect fill="none" height="96.3" rx="2.5" ry="2.5" style="stroke:#181818;stroke-width:1.0;" width="132" x="339.5" y="248.7275"/><path d="M425.5,248.7275 L425.5,258.0244 L415.5,268.0244 L339.5,268.0244 " fill="none" style="stroke:#181818;stroke-width:1.0;"/><text fill="#000000" font-family="sans-serif" font-size="14" font-weight="bold" lengthAdjust="spacing" textLength="76" x="342.5" y="262.7226">Integratie</text></g><!--cluster API--><g id="cluster_API"><rect fill="none" height="97.3" rx="2.5" ry="2.5" style="stroke:#181818;stroke-width:1.0;" width="132" x="808.5" y="248.2275"/><path d="M843.5,248.2275 L843.5,257.5244 L833.5,267.5244 L808.5,267.5244 " fill="none" style="stroke:#181818;stroke-width:1.0;"/><text fill="#000000" font-family="sans-serif" font-size="14" font-weight="bold" lengthAdjust="spacing" textLength="25" x="811.5" y="262.2226">API</text></g><!--entity KOOP--><g id="elem_KOOP"><ellipse cx="149.5" cy="100.4375" fill="#CCE5FF" rx="8" ry="8" style="stroke:#181818;stroke-width:0.5;"/><path d="M149.5,108.4375 L149.5,135.4375 M136.5,116.4375 L162.5,116.4375 M149.5,135.4375 L136.5,150.4375 M149.5,135.4375 L162.5,150.4375 " fill="none" style="stroke:#181818;stroke-width:0.5;"/><text fill="#000000" font-family="sans-serif" font-size="14" lengthAdjust="spacing" textLength="40" x="129.5" y="164.9326">KOOP</text></g><!--entity WOOGLE--><g id="elem_WOOGLE"><ellipse cx="235.5" cy="100.4375" fill="#CCE5FF" rx="8" ry="8" style="stroke:#181818;stroke-width:0.5;"/><path d="M235.5,108.4375 L235.5,135.4375 M222.5,116.4375 L248.5,116.4375 M235.5,135.4375 L222.5,150.4375 M235.5,135.4375 L248.5,150.4375 " fill="none" style="stroke:#181818;stroke-width:0.5;"/><text fill="#000000" font-family="sans-serif" font-size="14" lengthAdjust="spacing" textLength="62" x="204.5" y="164.9326">WOOGLE</text></g><!--entity Website--><g id="elem_Website"><ellipse cx="337.5" cy="130.0775" fill="#1ABC9C" rx="8" ry="8" style="stroke:#181818;stroke-width:0.5;"/><text fill="#000000" font-family="sans-serif" font-size="14" lengthAdjust="spacing" textLength="56" x="309.5" y="160.0726">Website</text></g><!--entity Themasite--><g id="elem_Themasite"><ellipse cx="454.5" cy="130.0775" fill="#1ABC9C" rx="8" ry="8" style="stroke:#181818;stroke-width:0.5;"/><text fill="#000000" font-family="sans-serif" font-size="14" lengthAdjust="spacing" textLength="77" x="416" y="160.0726">Thema site</text></g><!--entity Searchsite--><g id="elem_Searchsite"><ellipse cx="586.5" cy="130.0775" fill="#1ABC9C" rx="8" ry="8" style="stroke:#181818;stroke-width:0.5;"/><text fill="#000000" font-family="sans-serif" font-size="14" lengthAdjust="spacing" textLength="86" x="543.5" y="160.0726">Zoek pagina</text></g><!--entity OWS--><g id="elem_OWS"><polygon fill="#1ABC9C" points="777,111.9375,930,111.9375,940,130.0859,930,148.2344,777,148.2344,787,130.0859" style="stroke:#181818;stroke-width:0.5;"/><text fill="#000000" font-family="sans-serif" font-size="14" lengthAdjust="spacing" textLength="123" x="797" y="134.9326">OpenWoo Service</text></g><!--entity OI--><g id="elem_OI"><path d="M356,293.7275 C356,283.7275 405.5,283.7275 405.5,283.7275 C405.5,283.7275 455,283.7275 455,293.7275 L455,319.0244 C455,329.0244 405.5,329.0244 405.5,329.0244 C405.5,329.0244 356,329.0244 356,319.0244 L356,293.7275 " fill="#1ABC9C" style="stroke:#181818;stroke-width:0.5;"/><path d="M356,293.7275 C356,303.7275 405.5,303.7275 405.5,303.7275 C405.5,303.7275 455,303.7275 455,293.7275 " fill="none" style="stroke:#181818;stroke-width:0.5;"/><text fill="#000000" font-family="sans-serif" font-size="14" lengthAdjust="spacing" textLength="79" x="366" y="320.7226">Open Index</text></g><!--entity Bronnen--><g id="elem_Bronnen"><rect fill="#CCE5FF" height="46.2969" rx="2.5" ry="2.5" style="stroke:#181818;stroke-width:0.5;" width="100" x="824.5" y="283.2275"/><rect fill="#CCE5FF" height="10" style="stroke:#181818;stroke-width:0.5;" width="15" x="904.5" y="288.2275"/><rect fill="#CCE5FF" height="2" style="stroke:#181818;stroke-width:0.5;" width="4" x="902.5" y="290.2275"/><rect fill="#CCE5FF" height="2" style="stroke:#181818;stroke-width:0.5;" width="4" x="902.5" y="294.2275"/><text fill="#000000" font-family="sans-serif" font-size="14" lengthAdjust="spacing" textLength="60" x="839.5" y="316.2226">Bronnen</text></g><!--link KOOP to OI--><g id="link_KOOP_OI"><path d="M129.03,138.5175 C88.79,154.2275 6,192.6175 38.5,232.2275 C78.05,280.4475 258.721,297.125 349.581,302.625 " fill="none" id="KOOP-to-OI" style="stroke:#181818;stroke-width:1.0;"/><polygon fill="#181818" points="355.57,302.9875,346.8281,298.451,350.5791,302.6854,346.3448,306.4364,355.57,302.9875" style="stroke:#181818;stroke-width:1.0;"/><text fill="#000000" font-family="sans-serif" font-size="13" lengthAdjust="spacing" textLength="161" x="39.5" y="220.7944">Indexeerd (XML Sitemap)</text></g><!--link WOOGLE to OI--><g id="link_WOOGLE_OI"><path d="M216.47,168.4875 C208.97,188.8875 204.81,213.6775 217.5,232.2275 C248.24,277.1775 305.0664,293.6276 349.6064,300.3076 " fill="none" id="WOOGLE-to-OI" style="stroke:#181818;stroke-width:1.0;"/><polygon fill="#181818" points="355.54,301.1975,347.2328,295.9069,350.5953,300.4559,346.0463,303.8184,355.54,301.1975" style="stroke:#181818;stroke-width:1.0;"/><text fill="#000000" font-family="sans-serif" font-size="13" lengthAdjust="spacing" textLength="97" x="218.5" y="220.7944">Indexeerd (API)</text></g><!--link Website to OI--><g id="link_Website_OI"><path d="M334.68,138.8275 C328.79,156.2975 316.82,199.7875 330.5,232.2275 C339.19,252.8475 352.1576,266.7858 368.1576,279.6058 " fill="none" id="Website-to-OI" style="stroke:#181818;stroke-width:1.0;"/><polygon fill="#181818" points="372.84,283.3575,368.3176,274.6083,368.938,280.2311,363.3153,280.8515,372.84,283.3575" style="stroke:#181818;stroke-width:1.0;"/><text fill="#000000" font-family="sans-serif" font-size="13" lengthAdjust="spacing" textLength="95" x="331.5" y="220.7944">Bevraagd (API)</text></g><!--link Themasite to OI--><g id="link_Themasite_OI"><path d="M453.56,139.0775 C451.41,156.3475 445.53,198.3075 435.5,232.2275 C430.28,249.8675 424.7674,263.6138 418.3474,277.9138 " fill="none" id="Themasite-to-OI" style="stroke:#181818;stroke-width:1.0;"/><polygon fill="#181818" points="415.89,283.3875,423.2252,276.8153,417.9378,278.8261,415.927,273.5387,415.89,283.3875" style="stroke:#181818;stroke-width:1.0;"/><text fill="#000000" font-family="sans-serif" font-size="13" lengthAdjust="spacing" textLength="95" x="443.5" y="220.7944">Bevraagd (API)</text></g><!--link Searchsite to OI--><g id="link_Searchsite_OI"><path d="M585.41,138.9075 C582.49,157.3175 572.89,203.9375 547.5,232.2275 C522.86,259.6775 491.0909,276.1957 460.8709,287.8057 " fill="none" id="Searchsite-to-OI" style="stroke:#181818;stroke-width:1.0;"/><polygon fill="#181818" points="455.27,289.9575,465.1058,290.4638,459.9374,288.1644,462.2368,282.9959,455.27,289.9575" style="stroke:#181818;stroke-width:1.0;"/><text fill="#000000" font-family="sans-serif" font-size="13" lengthAdjust="spacing" textLength="95" x="567.5" y="220.7944">Bevraagd (API)</text></g><!--link OWS to OI--><g id="link_OWS_OI"><path d="M830.96,148.5775 C795.32,170.5975 730.75,208.4175 671.5,232.2275 C598.39,261.6075 515.2619,282.1575 460.9919,294.0075 " fill="none" id="OWS-to-OI" style="stroke:#181818;stroke-width:1.0;stroke-dasharray:7.0,7.0;"/><polygon fill="#181818" points="455.13,295.2875,464.7761,297.2755,460.0149,294.2209,463.0695,289.4596,455.13,295.2875" style="stroke:#181818;stroke-width:1.0;"/><text fill="#000000" font-family="sans-serif" font-size="13" lengthAdjust="spacing" textLength="68" x="735.5" y="220.7944">Slaat op in</text></g><!--link OWS to Bronnen--><g id="link_OWS_Bronnen"><path d="M856.31,148.7075 C854.19,168.9475 851.78,203.1275 855.5,232.2275 C857.71,249.5375 861.0145,262.864 865.3445,277.194 " fill="none" id="OWS-to-Bronnen" style="stroke:#181818;stroke-width:1.0;"/><polygon fill="#181818" points="867.08,282.9375,868.3058,273.1652,865.6338,278.1512,860.6478,275.4792,867.08,282.9375" style="stroke:#181818;stroke-width:1.0;"/><text fill="#000000" font-family="sans-serif" font-size="13" lengthAdjust="spacing" textLength="127" x="856.5" y="213.2944">Scrapes periodically</text><text fill="#000000" font-family="sans-serif" font-size="13" lengthAdjust="spacing" textLength="98" x="871" y="228.4272">Uses as source</text></g><!--reverse link OWS to Bronnen--><g id="link_OWS_Bronnen"><path d="M926.8327,150.965 C952.3327,161.535 973.69,175.5775 988.5,200.2275 C1009.78,235.6575 964.55,266.4075 924.92,285.3475 " fill="none" id="OWS-backto-Bronnen" style="stroke:#181818;stroke-width:1.0;"/><polygon fill="#181818" points="921.29,148.6675,928.0724,155.8089,925.9089,150.5821,931.1357,148.4186,921.29,148.6675" style="stroke:#181818;stroke-width:1.0;"/><text fill="#000000" font-family="sans-serif" font-size="13" lengthAdjust="spacing" textLength="190" x="994.5" y="220.7944">Notifies of changes or deletes</text></g><text fill="#888888" font-family="sans-serif" font-size="10" lengthAdjust="spacing" textLength="68" x="555.25" y="359.8097">OpenWoo.app</text><!--SRC=[VPFBRjim44Nt_8e1isYoi84-igWN1H8W28owbL4rS51qCwP65b6994WwRL7qtpkKH2KAKcl5nvdBuRrKrB4bs1xthLOODO5hCTRMTsH4RMqaluB2aTbPkqJdH4DOFLyJhruMWFCDuW4kuMvz8MgF7O5y6PJmHm1_gABr83yMnLRoB40QmPbIT5dNJmW0kIkAsysDJD0md67QSESrAZvnH_kW8qcuAc4SmzbhtAltwZdwjQ4EOQ1Pjv-UuhzP-W4E3zfWNr0IUjNCAlucTqho3rfH6FnuDvcHr_FrdRSy2o17TtFXu4MnA-UoQ-xau7il1-Mta_BZLjQkCE8U0mtYN5lHhr5tFPUzzjQOARqta-RLTft5bEsSPIQ27Ed-_hboYgBN-q8SjBOcDDe5qIUwgEnFi_YGZbuDhH3v2ixlFssWPFiwT1TYZFL_BBV3p1Ze3Bgc1y-jP-OnnbFKa-nEOIc4vJBjhQ1i4IDOnqz2z1kvCFl0YFBeA80Zhst53xzjVtytTu6NsAzWZrvHykYpZRhk_mlsIUJwnT6bDbXvDH9SPsjG3Pf36dgegAL8uHy0]--></g></svg>