<?xml version="1.0" encoding="us-ascii" standalone="no"?><svg xmlns="http://www.w3.org/2000/svg" xmlns:xlink="http://www.w3.org/1999/xlink" contentStyleType="text/css" height="370px" preserveAspectRatio="none" style="width:2225px;height:370px;background:#FFFFFF;" version="1.1" viewBox="0 0 2225 370" width="2225px" zoomAndPan="magnify"><defs/><g><text fill="#888888" font-family="sans-serif" font-size="10" lengthAdjust="spacing" textLength="68" x="2143.5" y="9.2822">OpenWoo.app</text><text fill="#000000" font-family="sans-serif" font-size="14" font-weight="bold" lengthAdjust="spacing" textLength="167" x="1022.25" y="35.6357">Publicatie platformen</text><!--cluster Publicatie platformen --><g id="cluster_Publicatie platformen "><rect fill="none" height="127.29" rx="2.5" ry="2.5" style="stroke:#181818;stroke-width:1.0;" width="540" x="113.5" y="56.9375"/><path d="M295.5,56.9375 L295.5,66.2344 L285.5,76.2344 L113.5,76.2344 " fill="none" style="stroke:#181818;stroke-width:1.0;"/><text fill="#000000" font-family="sans-serif" font-size="14" font-weight="bold" lengthAdjust="spacing" textLength="167" x="116.5" y="70.9326">Publicatie platformen</text></g><!--cluster Services--><g id="cluster_Services"><rect fill="none" height="87.29" rx="2.5" ry="2.5" style="stroke:#181818;stroke-width:1.0;" width="196" x="1330.5" y="76.9375"/><path d="M1408.5,76.9375 L1408.5,86.2344 L1398.5,96.2344 L1330.5,96.2344 " fill="none" style="stroke:#181818;stroke-width:1.0;"/><text fill="#000000" font-family="sans-serif" font-size="14" font-weight="bold" lengthAdjust="spacing" textLength="68" x="1333.5" y="90.9326">Services</text></g><!--cluster Integratie--><g id="cluster_Integratie"><rect fill="none" height="96.3" rx="2.5" ry="2.5" style="stroke:#181818;stroke-width:1.0;" width="132" x="339.5" y="248.7275"/><path d="M425.5,248.7275 L425.5,258.0244 L415.5,268.0244 L339.5,268.0244 " fill="none" style="stroke:#181818;stroke-width:1.0;"/><text fill="#000000" font-family="sans-serif" font-size="14" font-weight="bold" lengthAdjust="spacing" textLength="76" x="342.5" y="262.7226">Integratie</text></g><!--cluster API--><g id="cluster_API"><rect fill="none" height="97.3" rx="2.5" ry="2.5" style="stroke:#181818;stroke-width:1.0;" width="861" x="1224.5" y="248.2275"/><path d="M1259.5,248.2275 L1259.5,257.5244 L1249.5,267.5244 L1224.5,267.5244 " fill="none" style="stroke:#181818;stroke-width:1.0;"/><text fill="#000000" font-family="sans-serif" font-size="14" font-weight="bold" lengthAdjust="spacing" textLength="25" x="1227.5" y="262.2226">API</text></g><!--entity KOOP--><g id="elem_KOOP"><ellipse cx="149.5" cy="100.4375" fill="#CCE5FF" rx="8" ry="8" style="stroke:#181818;stroke-width:0.5;"/><path d="M149.5,108.4375 L149.5,135.4375 M136.5,116.4375 L162.5,116.4375 M149.5,135.4375 L136.5,150.4375 M149.5,135.4375 L162.5,150.4375 " fill="none" style="stroke:#181818;stroke-width:0.5;"/><text fill="#000000" font-family="sans-serif" font-size="14" lengthAdjust="spacing" textLength="40" x="129.5" y="164.9326">KOOP</text></g><!--entity WOOGLE--><g id="elem_WOOGLE"><ellipse cx="235.5" cy="100.4375" fill="#CCE5FF" rx="8" ry="8" style="stroke:#181818;stroke-width:0.5;"/><path d="M235.5,108.4375 L235.5,135.4375 M222.5,116.4375 L248.5,116.4375 M235.5,135.4375 L222.5,150.4375 M235.5,135.4375 L248.5,150.4375 " fill="none" style="stroke:#181818;stroke-width:0.5;"/><text fill="#000000" font-family="sans-serif" font-size="14" lengthAdjust="spacing" textLength="62" x="204.5" y="164.9326">WOOGLE</text></g><!--entity Website--><g id="elem_Website"><ellipse cx="337.5" cy="130.0775" fill="#1ABC9C" rx="8" ry="8" style="stroke:#181818;stroke-width:0.5;"/><text fill="#000000" font-family="sans-serif" font-size="14" lengthAdjust="spacing" textLength="56" x="309.5" y="160.0726">Website</text></g><!--entity Themasite--><g id="elem_Themasite"><ellipse cx="454.5" cy="130.0775" fill="#1ABC9C" rx="8" ry="8" style="stroke:#181818;stroke-width:0.5;"/><text fill="#000000" font-family="sans-serif" font-size="14" lengthAdjust="spacing" textLength="77" x="416" y="160.0726">Thema site</text></g><!--entity Searchsite--><g id="elem_Searchsite"><ellipse cx="586.5" cy="130.0775" fill="#1ABC9C" rx="8" ry="8" style="stroke:#181818;stroke-width:0.5;"/><text fill="#000000" font-family="sans-serif" font-size="14" lengthAdjust="spacing" textLength="86" x="543.5" y="160.0726">Zoek pagina</text></g><!--entity OWS--><g id="elem_OWS"><polygon fill="#1ABC9C" points="1347,111.9375,1500,111.9375,1510,130.0859,1500,148.2344,1347,148.2344,1357,130.0859" style="stroke:#181818;stroke-width:0.5;"/><text fill="#000000" font-family="sans-serif" font-size="14" lengthAdjust="spacing" textLength="123" x="1367" y="134.9326">OpenWoo Service</text></g><!--entity OI--><g id="elem_OI"><path d="M356,293.7275 C356,283.7275 405.5,283.7275 405.5,283.7275 C405.5,283.7275 455,283.7275 455,293.7275 L455,319.0244 C455,329.0244 405.5,329.0244 405.5,329.0244 C405.5,329.0244 356,329.0244 356,319.0244 L356,293.7275 " fill="#1ABC9C" style="stroke:#181818;stroke-width:0.5;"/><path d="M356,293.7275 C356,303.7275 405.5,303.7275 405.5,303.7275 C405.5,303.7275 455,303.7275 455,293.7275 " fill="none" style="stroke:#181818;stroke-width:0.5;"/><text fill="#000000" font-family="sans-serif" font-size="14" lengthAdjust="spacing" textLength="79" x="366" y="320.7226">Open Index</text></g><!--entity Zaaksysteem--><g id="elem_Zaaksysteem"><rect fill="#CCE5FF" height="46.2969" rx="2.5" ry="2.5" style="stroke:#181818;stroke-width:0.5;" width="133" x="1240" y="283.2275"/><rect fill="#CCE5FF" height="10" style="stroke:#181818;stroke-width:0.5;" width="15" x="1353" y="288.2275"/><rect fill="#CCE5FF" height="2" style="stroke:#181818;stroke-width:0.5;" width="4" x="1351" y="290.2275"/><rect fill="#CCE5FF" height="2" style="stroke:#181818;stroke-width:0.5;" width="4" x="1351" y="294.2275"/><text fill="#000000" font-family="sans-serif" font-size="14" lengthAdjust="spacing" textLength="93" x="1255" y="316.2226">Zaaksysteem</text></g><!--entity CMS--><g id="elem_CMS"><rect fill="#CCE5FF" height="46.2969" rx="2.5" ry="2.5" style="stroke:#181818;stroke-width:0.5;" width="71" x="1408" y="283.2275"/><rect fill="#CCE5FF" height="10" style="stroke:#181818;stroke-width:0.5;" width="15" x="1459" y="288.2275"/><rect fill="#CCE5FF" height="2" style="stroke:#181818;stroke-width:0.5;" width="4" x="1457" y="290.2275"/><rect fill="#CCE5FF" height="2" style="stroke:#181818;stroke-width:0.5;" width="4" x="1457" y="294.2275"/><text fill="#000000" font-family="sans-serif" font-size="14" lengthAdjust="spacing" textLength="31" x="1423" y="316.2226">CMS</text></g><!--entity Raadsinfo--><g id="elem_Raadsinfo"><rect fill="#CCE5FF" height="46.2969" rx="2.5" ry="2.5" style="stroke:#181818;stroke-width:0.5;" width="218" x="1514.5" y="283.2275"/><rect fill="#CCE5FF" height="10" style="stroke:#181818;stroke-width:0.5;" width="15" x="1712.5" y="288.2275"/><rect fill="#CCE5FF" height="2" style="stroke:#181818;stroke-width:0.5;" width="4" x="1710.5" y="290.2275"/><rect fill="#CCE5FF" height="2" style="stroke:#181818;stroke-width:0.5;" width="4" x="1710.5" y="294.2275"/><text fill="#000000" font-family="sans-serif" font-size="14" lengthAdjust="spacing" textLength="178" x="1529.5" y="316.2226">Raads informatie systeem</text></g><!--entity eDepot--><g id="elem_eDepot"><rect fill="#CCE5FF" height="46.2969" rx="2.5" ry="2.5" style="stroke:#181818;stroke-width:0.5;" width="92" x="1767.5" y="283.2275"/><rect fill="#CCE5FF" height="10" style="stroke:#181818;stroke-width:0.5;" width="15" x="1839.5" y="288.2275"/><rect fill="#CCE5FF" height="2" style="stroke:#181818;stroke-width:0.5;" width="4" x="1837.5" y="290.2275"/><rect fill="#CCE5FF" height="2" style="stroke:#181818;stroke-width:0.5;" width="4" x="1837.5" y="294.2275"/><text fill="#000000" font-family="sans-serif" font-size="14" lengthAdjust="spacing" textLength="52" x="1782.5" y="316.2226">eDepot</text></g><!--entity DMS--><g id="elem_DMS"><rect fill="#CCE5FF" height="46.2969" rx="2.5" ry="2.5" style="stroke:#181818;stroke-width:0.5;" width="72" x="1894.5" y="283.2275"/><rect fill="#CCE5FF" height="10" style="stroke:#181818;stroke-width:0.5;" width="15" x="1946.5" y="288.2275"/><rect fill="#CCE5FF" height="2" style="stroke:#181818;stroke-width:0.5;" width="4" x="1944.5" y="290.2275"/><rect fill="#CCE5FF" height="2" style="stroke:#181818;stroke-width:0.5;" width="4" x="1944.5" y="294.2275"/><text fill="#000000" font-family="sans-serif" font-size="14" lengthAdjust="spacing" textLength="32" x="1909.5" y="316.2226">DMS</text></g><!--entity VTH--><g id="elem_VTH"><rect fill="#CCE5FF" height="46.2969" rx="2.5" ry="2.5" style="stroke:#181818;stroke-width:0.5;" width="68" x="2001.5" y="283.2275"/><rect fill="#CCE5FF" height="10" style="stroke:#181818;stroke-width:0.5;" width="15" x="2049.5" y="288.2275"/><rect fill="#CCE5FF" height="2" style="stroke:#181818;stroke-width:0.5;" width="4" x="2047.5" y="290.2275"/><rect fill="#CCE5FF" height="2" style="stroke:#181818;stroke-width:0.5;" width="4" x="2047.5" y="294.2275"/><text fill="#000000" font-family="sans-serif" font-size="14" lengthAdjust="spacing" textLength="28" x="2016.5" y="316.2226">VTH</text></g><!--link KOOP to OI--><g id="link_KOOP_OI"><path d="M129.03,138.5175 C88.79,154.2275 6,192.6175 38.5,232.2275 C78.05,280.4475 258.721,297.125 349.581,302.625 " fill="none" id="KOOP-to-OI" style="stroke:#181818;stroke-width:1.0;"/><polygon fill="#181818" points="355.57,302.9875,346.8281,298.451,350.5791,302.6854,346.3448,306.4364,355.57,302.9875" style="stroke:#181818;stroke-width:1.0;"/><text fill="#000000" font-family="sans-serif" font-size="13" lengthAdjust="spacing" textLength="161" x="39.5" y="220.7944">Indexeerd (XML Sitemap)</text></g><!--link WOOGLE to OI--><g id="link_WOOGLE_OI"><path d="M216.47,168.4875 C208.97,188.8875 204.81,213.6775 217.5,232.2275 C248.24,277.1775 305.0664,293.6276 349.6064,300.3076 " fill="none" id="WOOGLE-to-OI" style="stroke:#181818;stroke-width:1.0;"/><polygon fill="#181818" points="355.54,301.1975,347.2328,295.9069,350.5953,300.4559,346.0463,303.8184,355.54,301.1975" style="stroke:#181818;stroke-width:1.0;"/><text fill="#000000" font-family="sans-serif" font-size="13" lengthAdjust="spacing" textLength="97" x="218.5" y="220.7944">Indexeerd (API)</text></g><!--link Website to OI--><g id="link_Website_OI"><path d="M334.68,138.8275 C328.79,156.2975 316.82,199.7875 330.5,232.2275 C339.19,252.8475 352.1576,266.7858 368.1576,279.6058 " fill="none" id="Website-to-OI" style="stroke:#181818;stroke-width:1.0;"/><polygon fill="#181818" points="372.84,283.3575,368.3176,274.6083,368.938,280.2311,363.3153,280.8515,372.84,283.3575" style="stroke:#181818;stroke-width:1.0;"/><text fill="#000000" font-family="sans-serif" font-size="13" lengthAdjust="spacing" textLength="95" x="331.5" y="220.7944">Bevraagd (API)</text></g><!--link Themasite to OI--><g id="link_Themasite_OI"><path d="M453.56,139.0775 C451.41,156.3475 445.53,198.3075 435.5,232.2275 C430.28,249.8675 424.7674,263.6138 418.3474,277.9138 " fill="none" id="Themasite-to-OI" style="stroke:#181818;stroke-width:1.0;"/><polygon fill="#181818" points="415.89,283.3875,423.2252,276.8153,417.9378,278.8261,415.927,273.5387,415.89,283.3875" style="stroke:#181818;stroke-width:1.0;"/><text fill="#000000" font-family="sans-serif" font-size="13" lengthAdjust="spacing" textLength="95" x="444.5" y="220.7944">Bevraagd (API)</text></g><!--link Searchsite to OI--><g id="link_Searchsite_OI"><path d="M585.51,138.9075 C582.8,157.3275 573.73,203.9575 548.5,232.2275 C523.71,260.0075 491.4928,276.5871 460.9728,288.1171 " fill="none" id="Searchsite-to-OI" style="stroke:#181818;stroke-width:1.0;"/><polygon fill="#181818" points="455.36,290.2375,465.1929,290.7987,460.0373,288.4705,462.3656,283.315,455.36,290.2375" style="stroke:#181818;stroke-width:1.0;"/><text fill="#000000" font-family="sans-serif" font-size="13" lengthAdjust="spacing" textLength="95" x="568.5" y="220.7944">Bevraagd (API)</text></g><!--link OWS to OI--><g id="link_OWS_OI"><path d="M1346.73,134.2275 C1221.62,140.2675 975.71,156.9675 771.5,200.2275 C726.26,209.8175 716.81,219.0075 672.5,232.2275 C597.2,254.7075 514.9733,276.7838 461.1933,290.9038 " fill="none" id="OWS-to-OI" style="stroke:#181818;stroke-width:1.0;stroke-dasharray:7.0,7.0;"/><polygon fill="#181818" points="455.39,292.4275,465.1107,294.0109,460.2261,291.1578,463.0792,286.2731,455.39,292.4275" style="stroke:#181818;stroke-width:1.0;"/><text fill="#000000" font-family="sans-serif" font-size="13" lengthAdjust="spacing" textLength="68" x="772.5" y="220.7944">Slaat op in</text></g><!--link OWS to CMS--><g id="link_OWS_CMS"><path d="M1348.22,148.7075 C1287.58,165.5275 1220.45,193.9675 1256.5,232.2275 C1266.72,243.0875 1377.22,233.4275 1390.5,240.2275 C1408.53,249.4775 1419.4827,262.767 1428.5827,277.667 " fill="none" id="OWS-to-CMS" style="stroke:#181818;stroke-width:1.0;"/><polygon fill="#181818" points="1431.71,282.7875,1430.4327,273.0218,1429.1039,278.5204,1423.6053,277.1916,1431.71,282.7875" style="stroke:#181818;stroke-width:1.0;"/><text fill="#000000" font-family="sans-serif" font-size="13" lengthAdjust="spacing" textLength="127" x="1257.5" y="213.2944">Scrapes periodically</text><text fill="#000000" font-family="sans-serif" font-size="13" lengthAdjust="spacing" textLength="98" x="1272" y="228.4272">Uses as source</text></g><!--reverse link OWS to CMS--><g id="link_OWS_CMS"><path d="M1425.7725,154.6667 C1423.7125,174.9067 1421.97,203.1075 1425.5,232.2275 C1427.59,249.4975 1432.37,268.5675 1436.47,282.9075 " fill="none" id="OWS-backto-CMS" style="stroke:#181818;stroke-width:1.0;"/><polygon fill="#181818" points="1426.38,148.6975,1421.4893,157.2462,1425.8737,153.6718,1429.4481,158.0563,1426.38,148.6975" style="stroke:#181818;stroke-width:1.0;"/><text fill="#000000" font-family="sans-serif" font-size="13" lengthAdjust="spacing" textLength="190" x="1426.5" y="220.7944">Notifies of changes or deletes</text></g><!--link OWS to Zaaksysteem--><g id="link_OWS_Zaaksysteem"><path d="M1346.71,135.0475 C1196.16,143.1775 887.53,164.0975 855.5,200.2275 C846.06,210.8775 846.28,221.3975 855.5,232.2275 C904.01,289.2475 1120.1618,301.8025 1233.5218,304.5425 " fill="none" id="OWS-to-Zaaksysteem" style="stroke:#181818;stroke-width:1.0;"/><polygon fill="#181818" points="1239.52,304.6875,1230.6193,300.4712,1234.5215,304.5667,1230.426,308.4689,1239.52,304.6875" style="stroke:#181818;stroke-width:1.0;"/><text fill="#000000" font-family="sans-serif" font-size="13" lengthAdjust="spacing" textLength="127" x="856.5" y="213.2944">Scrapes periodically</text><text fill="#000000" font-family="sans-serif" font-size="13" lengthAdjust="spacing" textLength="98" x="871" y="228.4272">Uses as source</text></g><!--reverse link OWS to Zaaksysteem--><g id="link_OWS_Zaaksysteem"><path d="M1340.739,134.3468 C1240.129,139.8768 1083.98,155.3575 1046.5,200.2275 C989.69,268.2475 1145.07,292.6975 1239.64,301.1475 " fill="none" id="OWS-backto-Zaaksysteem" style="stroke:#181818;stroke-width:1.0;"/><polygon fill="#181818" points="1346.73,134.0175,1337.524,130.5175,1341.7375,134.2919,1337.9631,138.5054,1346.73,134.0175" style="stroke:#181818;stroke-width:1.0;"/><text fill="#000000" font-family="sans-serif" font-size="13" lengthAdjust="spacing" textLength="190" x="1047.5" y="220.7944">Notifies of changes or deletes</text></g><!--link OWS to Raadsinfo--><g id="link_OWS_Raadsinfo"><path d="M1510.46,138.9975 C1550.78,147.4675 1596.06,164.8175 1621.5,200.2275 C1638.75,224.2575 1636.2689,254.1198 1631.1689,277.1198 " fill="none" id="OWS-to-Raadsinfo" style="stroke:#181818;stroke-width:1.0;"/><polygon fill="#181818" points="1629.87,282.9775,1635.7235,275.0568,1630.9524,278.0961,1627.9132,273.325,1629.87,282.9775" style="stroke:#181818;stroke-width:1.0;"/><text fill="#000000" font-family="sans-serif" font-size="13" lengthAdjust="spacing" textLength="127" x="1634.5" y="213.2944">Scrapes periodically</text><text fill="#000000" font-family="sans-serif" font-size="13" lengthAdjust="spacing" textLength="98" x="1649" y="228.4272">Uses as source</text></g><!--link OWS to eDepot--><g id="link_OWS_eDepot"><path d="M1510.42,138.7375 C1598.66,148.5075 1731.64,168.0875 1770.5,200.2275 C1795.57,220.9675 1805.1201,252.7537 1809.5001,276.9237 " fill="none" id="OWS-to-eDepot" style="stroke:#181818;stroke-width:1.0;"/><polygon fill="#181818" points="1810.57,282.8275,1812.9011,273.2585,1809.6784,277.9076,1805.0293,274.685,1810.57,282.8275" style="stroke:#181818;stroke-width:1.0;"/><text fill="#000000" font-family="sans-serif" font-size="13" lengthAdjust="spacing" textLength="127" x="1795.5" y="213.2944">Scrapes periodically</text><text fill="#000000" font-family="sans-serif" font-size="13" lengthAdjust="spacing" textLength="98" x="1810" y="228.4272">Uses as source</text></g><!--link OWS to DMS--><g id="link_OWS_DMS"><path d="M1510.35,136.5175 C1645.76,146.3475 1904.27,169.0075 1931.5,200.2275 C1951.17,222.7975 1946.8997,253.8445 1940.0797,277.3845 " fill="none" id="OWS-to-DMS" style="stroke:#181818;stroke-width:1.0;"/><polygon fill="#181818" points="1938.41,283.1475,1944.7565,275.6161,1939.8014,278.345,1937.0725,273.3899,1938.41,283.1475" style="stroke:#181818;stroke-width:1.0;"/><text fill="#000000" font-family="sans-serif" font-size="13" lengthAdjust="spacing" textLength="127" x="1945.5" y="213.2944">Scrapes periodically</text><text fill="#000000" font-family="sans-serif" font-size="13" lengthAdjust="spacing" textLength="98" x="1960" y="228.4272">Uses as source</text></g><!--link OWS to VTH--><g id="link_OWS_VTH"><path d="M1510.26,133.7475 C1677.03,140.0175 2043.92,158.4675 2081.5,200.2275 C2103.09,224.2275 2082.9375,255.492 2062.2875,278.502 " fill="none" id="OWS-to-VTH" style="stroke:#181818;stroke-width:1.0;"/><polygon fill="#181818" points="2058.28,282.9675,2067.2682,278.941,2061.6195,279.2463,2061.3142,273.5977,2058.28,282.9675" style="stroke:#181818;stroke-width:1.0;"/><text fill="#000000" font-family="sans-serif" font-size="13" lengthAdjust="spacing" textLength="127" x="2090.5" y="213.2944">Scrapes periodically</text><text fill="#000000" font-family="sans-serif" font-size="13" lengthAdjust="spacing" textLength="98" x="2105" y="228.4272">Uses as source</text></g><text fill="#888888" font-family="sans-serif" font-size="10" lengthAdjust="spacing" textLength="68" x="1071.75" y="359.8097">OpenWoo.app</text><!--SRC=[dLJBRjim4BphAnRAeSd11lh8eJuKIEgYDUfKHfHKHP3BcbhPH2IH8EcqGT5_xvAIR2c8ZS2wYEJE3CdPaPnq9S5YioobG2S9T8ckKAQYEYgKScGca6YgCwN6g7Mq9ioVhqLlNXQ0qpdY2ixXTdOM5GOhWlXbO0n_8-07XLC6ukz9ieXvPi6Fu4G8EY-A7W8WpfBaw_nBx47DS02JDP-yGC4xPhIqqb4C5ocqOpXvYqlnKJo7tgofGcZGh1kcX_1tYXv0uqhM60WfeH7h0UEVToSbyoW5sSQF3ripklNk-jeedbc8MtSxOkD5agL3sHcVP6M2buto-wtohjHfv-XmYPOQSURczAVLdGrbBusgwstttcqrBnQpJaoeIYl6EFO0yS4-MKTK1GzwSnYqfCVvV9K6BB_tOguHSyjc-uI4A_Ot2KLVsqkdAMdb0hWPxaLEsyDC3npcvystWE7t3XFCkYPEiLIrNKjjen3NKQv-rwDFtjT9upEHoU7qrzKSKiv6XVeiQZEx3yjUCwPDwm1qIO-6-z9XTXazXEe5yn3C9smyzhK9f2MY0wMv1L4eT4JVD2uBWveiQ39IvVn5b-NJVNrhUObzicfZ10re_LmSGTzr_0Xocu0ZcDFZBkjpyaeQP-Y7Sh88FqNEKUJz7MsqRr7cDs-gp545Y3NMApyqa5D9ZcpKz_NrjFy0]--></g></svg>