<?xml version="1.0" encoding="us-ascii" standalone="no"?><svg xmlns="http://www.w3.org/2000/svg" xmlns:xlink="http://www.w3.org/1999/xlink" contentStyleType="text/css" height="543px" preserveAspectRatio="none" style="width:513px;height:543px;background:#FFFFFF;" version="1.1" viewBox="0 0 513 543" width="513px" zoomAndPan="magnify"><defs/><g><text fill="#888888" font-family="sans-serif" font-size="10" lengthAdjust="spacing" textLength="68" x="431" y="9.2822">OpenWoo.app</text><text fill="#000000" font-family="sans-serif" font-size="14" font-weight="bold" lengthAdjust="spacing" textLength="247" x="126" y="35.6357">Publiceren vanuit Zaaksysteem</text><!--cluster Publicatie platformen --><g id="cluster_Publicatie platformen "><rect fill="none" height="109" rx="2.5" ry="2.5" style="stroke:#181818;stroke-width:1.0;" width="188" x="7" y="264.2275"/><path d="M189,264.2275 L189,273.5244 L179,283.5244 L7,283.5244 " fill="none" style="stroke:#181818;stroke-width:1.0;"/><text fill="#000000" font-family="sans-serif" font-size="14" font-weight="bold" lengthAdjust="spacing" textLength="167" x="10" y="278.2226">Publicatie platformen</text></g><!--cluster Services--><g id="cluster_Services"><rect fill="none" height="87.3" rx="2.5" ry="2.5" style="stroke:#181818;stroke-width:1.0;" width="196" x="219" y="275.0775"/><path d="M297,275.0775 L297,284.3744 L287,294.3744 L219,294.3744 " fill="none" style="stroke:#181818;stroke-width:1.0;"/><text fill="#000000" font-family="sans-serif" font-size="14" font-weight="bold" lengthAdjust="spacing" textLength="68" x="222" y="289.0726">Services</text></g><!--cluster Integratie--><g id="cluster_Integratie"><rect fill="none" height="96.3" rx="2.5" ry="2.5" style="stroke:#181818;stroke-width:1.0;" width="132" x="163" y="422.2275"/><path d="M249,422.2275 L249,431.5244 L239,441.5244 L163,441.5244 " fill="none" style="stroke:#181818;stroke-width:1.0;"/><text fill="#000000" font-family="sans-serif" font-size="14" font-weight="bold" lengthAdjust="spacing" textLength="76" x="166" y="436.2226">Integratie</text></g><!--cluster API--><g id="cluster_API"><rect fill="none" height="96.29" rx="2.5" ry="2.5" style="stroke:#181818;stroke-width:1.0;" width="192" x="188" y="56.9375"/><path d="M223,56.9375 L223,66.2344 L213,76.2344 L188,76.2344 " fill="none" style="stroke:#181818;stroke-width:1.0;"/><text fill="#000000" font-family="sans-serif" font-size="14" font-weight="bold" lengthAdjust="spacing" textLength="25" x="191" y="70.9326">API</text></g><!--entity Searchsite--><g id="elem_Searchsite"><ellipse cx="128" cy="328.2275" fill="#1ABC9C" rx="8" ry="8" style="stroke:#181818;stroke-width:0.5;"/><text fill="#000000" font-family="sans-serif" font-size="14" lengthAdjust="spacing" textLength="86" x="85" y="358.2226">Zoek pagina</text></g><!--entity OWS--><g id="elem_OWS"><polygon fill="#1ABC9C" points="235.5,310.0775,388.5,310.0775,398.5,328.2259,388.5,346.3744,235.5,346.3744,245.5,328.2259" style="stroke:#181818;stroke-width:0.5;"/><text fill="#000000" font-family="sans-serif" font-size="14" lengthAdjust="spacing" textLength="123" x="255.5" y="333.0726">OpenWoo Service</text></g><!--entity OI--><g id="elem_OI"><path d="M179.5,467.2275 C179.5,457.2275 229,457.2275 229,457.2275 C229,457.2275 278.5,457.2275 278.5,467.2275 L278.5,492.5244 C278.5,502.5244 229,502.5244 229,502.5244 C229,502.5244 179.5,502.5244 179.5,492.5244 L179.5,467.2275 " fill="#1ABC9C" style="stroke:#181818;stroke-width:0.5;"/><path d="M179.5,467.2275 C179.5,477.2275 229,477.2275 229,477.2275 C229,477.2275 278.5,477.2275 278.5,467.2275 " fill="none" style="stroke:#181818;stroke-width:0.5;"/><text fill="#000000" font-family="sans-serif" font-size="14" lengthAdjust="spacing" textLength="79" x="189.5" y="494.2226">Open Index</text></g><!--entity ZRC--><g id="elem_ZRC"><path d="M203.5,101.9375 C203.5,91.9375 284,91.9375 284,91.9375 C284,91.9375 364.5,91.9375 364.5,101.9375 L364.5,127.2344 C364.5,137.2344 284,137.2344 284,137.2344 C284,137.2344 203.5,137.2344 203.5,127.2344 L203.5,101.9375 " fill="#CCE5FF" style="stroke:#181818;stroke-width:0.5;"/><path d="M203.5,101.9375 C203.5,111.9375 284,111.9375 284,111.9375 C284,111.9375 364.5,111.9375 364.5,101.9375 " fill="none" style="stroke:#181818;stroke-width:0.5;"/><text fill="#000000" font-family="sans-serif" font-size="14" lengthAdjust="spacing" textLength="141" x="213.5" y="128.9326">Zaaksysteem (ZGW)</text></g><!--link Searchsite to OI--><g id="link_Searchsite_OI"><path d="M131.44,337.1975 C137.77,351.5475 152.1,382.4275 168,406.2275 C180.07,424.3075 191.8976,438.5965 204.4176,452.5165 " fill="none" id="Searchsite-to-OI" style="stroke:#181818;stroke-width:1.0;"/><polygon fill="#181818" points="208.43,456.9775,205.3855,447.611,205.0864,453.26,199.4374,452.9609,208.43,456.9775" style="stroke:#181818;stroke-width:1.0;"/><text fill="#000000" font-family="sans-serif" font-size="13" lengthAdjust="spacing" textLength="95" x="169" y="402.2944">Bevraagd (API)</text></g><!--link OWS to ZRC--><g id="link_OWS_ZRC"><path d="M300.45,309.9175 C282.29,289.6075 254.22,253.9975 243,217.2275 C234.39,189.0175 247.7342,162.5768 262.3642,142.2568 " fill="none" id="OWS-to-ZRC" style="stroke:#181818;stroke-width:1.0;"/><polygon fill="#181818" points="265.87,137.3875,257.3652,142.3542,262.9485,141.4452,263.8575,147.0286,265.87,137.3875" style="stroke:#181818;stroke-width:1.0;"/><text fill="#000000" font-family="sans-serif" font-size="13" lengthAdjust="spacing" textLength="63" x="244" y="213.2944">Indexeerd</text></g><!--link ZRC to OWS--><g id="link_ZRC_OWS"><path d="M293.1,137.4175 C299.66,154.2575 308.02,178.2975 312,200.2275 C319.01,238.8775 318.8969,279.1811 318.0469,303.8111 " fill="none" id="ZRC-to-OWS" style="stroke:#181818;stroke-width:1.0;stroke-dasharray:7.0,7.0;"/><polygon fill="#181818" points="317.84,309.8075,322.148,300.9508,318.0125,304.8105,314.1528,300.6749,317.84,309.8075" style="stroke:#181818;stroke-width:1.0;"/><text fill="#000000" font-family="sans-serif" font-size="13" lengthAdjust="spacing" textLength="190" x="315" y="213.2944">Notifies of changes or deletes</text></g><!--link OWS to OI--><g id="link_OWS_OI"><path d="M306.73,346.6875 C290.64,374.0575 262.5316,421.8556 244.9416,451.7656 " fill="none" id="OWS-to-OI" style="stroke:#181818;stroke-width:1.0;stroke-dasharray:7.0,7.0;"/><polygon fill="#181818" points="241.9,456.9375,249.9103,451.2074,244.4347,452.6276,243.0144,447.1519,241.9,456.9375" style="stroke:#181818;stroke-width:1.0;"/><text fill="#000000" font-family="sans-serif" font-size="13" lengthAdjust="spacing" textLength="68" x="281" y="402.2944">Slaat op in</text></g><text fill="#888888" font-family="sans-serif" font-size="10" lengthAdjust="spacing" textLength="68" x="215.5" y="532.8097">OpenWoo.app</text><!--SRC=[RP4zJyCm48Pt_ufJEj0EZSH71p8WKGOK2T6A25NATdNEgTNKjcotW13_7JjfGWjuik_ZUTyxU-aRWkL-tKXEbXGSKEsbXn9nwpwS9zeneRKdcy72a5ffdQ8nR4DO_OwnYoC8lIGm3NgXxIumnq-8DSpWDPymON57aFnVcC0dWt2a2e82UIWiDMt1O2qL9e0E2aBBDqvwWj4bhlajPrzHkI1x22EuJkjc4EhZFTfO7LuEagFplZ61I5-iYdDi7fpKjlNPaQy7ya-gPrVeSOsEEdZehUZzoCtFiNEhbHesSpKmxvVvNzZ9Ny2uV5nDsaMKBmymufncGaGcErdCjD9lQdeNLJEOqy46aGh60JvXSS8-7n1PvvB8LcqgJMDR1aM3w46Ry1KiAgLfv8M239wrbqAI0os0Rr3LyMgXeeOykMy0]--></g></svg>